<svg width="58" height="58" viewBox="0 0 58 58" fill="none" xmlns="http://www.w3.org/2000/svg">
<path d="M21.7094 13.5842C23.1346 9.41322 28.8977 9.2869 30.5875 13.2052L30.7305 13.5865L32.6539 19.2114C33.0947 20.5013 33.807 21.6818 34.7428 22.6731C35.6786 23.6643 36.8161 24.4434 38.0785 24.9577L38.5957 25.1508L44.2206 27.0718C48.3915 28.4971 48.5178 34.2601 44.6019 35.95L44.2206 36.093L38.5957 38.0164C37.3053 38.4569 36.1244 39.169 35.1327 40.1048C34.141 41.0406 33.3616 42.1783 32.847 43.441L32.6539 43.9558L30.7329 49.583C29.3076 53.7539 23.5446 53.8802 21.8571 49.9643L21.7094 49.583L19.7884 43.9582C19.3479 42.6678 18.6357 41.4868 17.6999 40.4951C16.7641 39.5034 15.6264 38.724 14.3637 38.2094L13.8489 38.0164L8.22411 36.0953C4.05079 34.6701 3.92447 28.907 7.84277 27.2196L8.22411 27.0718L13.8489 25.1508C15.1389 24.71 16.3193 23.9977 17.3106 23.0619C18.3019 22.1261 19.081 20.9886 19.5953 19.7262L19.7884 19.2114L21.7094 13.5842ZM45.2883 5.36621C45.7342 5.36621 46.1711 5.49129 46.5495 5.72723C46.9278 5.96317 47.2324 6.30051 47.4286 6.70091L47.543 6.97977L48.3772 9.42514L50.8249 10.2593C51.2718 10.4111 51.6635 10.6922 51.9505 11.0669C52.2374 11.4415 52.4067 11.8929 52.4368 12.3639C52.4669 12.8349 52.3565 13.3042 52.1197 13.7124C51.8828 14.1205 51.53 14.4492 51.1062 14.6567L50.8249 14.7711L48.3796 15.6053L47.5454 18.053C47.3933 18.4997 47.112 18.8913 46.7372 19.178C46.3624 19.4647 45.9109 19.6337 45.44 19.6635C44.969 19.6934 44.4998 19.5828 44.0918 19.3457C43.6838 19.1087 43.3553 18.7558 43.148 18.3319L43.0336 18.053L42.1994 15.6077L39.7517 14.7735C39.3048 14.6217 38.9131 14.3406 38.6262 13.9659C38.3392 13.5913 38.17 13.1399 38.1398 12.6689C38.1097 12.1979 38.2201 11.7286 38.457 11.3204C38.6939 10.9123 39.0466 10.5836 39.4704 10.3761L39.7517 10.2617L42.197 9.42752L43.0312 6.97977C43.192 6.50887 43.496 6.10008 43.9008 5.81071C44.3056 5.52134 44.7907 5.36591 45.2883 5.36621Z" fill="url(#paint0_linear_680_2564)"/>
<defs>
<linearGradient id="paint0_linear_680_2564" x1="52.4416" y1="29.0877" x2="4.99609" y2="29.0877" gradientUnits="userSpaceOnUse">
<stop stop-color="#FFC757"/>
<stop offset="1" stop-color="#EB5E55"/>
</linearGradient>
</defs>
</svg>
