<svg width="48" height="48" viewBox="0 0 48 48" fill="none" xmlns="http://www.w3.org/2000/svg">
<path d="M41.426 16.2562L40.934 17.3882C40.8571 17.5725 40.7274 17.73 40.5612 17.8408C40.395 17.9515 40.1997 18.0106 40 18.0106C39.8003 18.0106 39.605 17.9515 39.4388 17.8408C39.2726 17.73 39.1429 17.5725 39.066 17.3882L38.574 16.2562C37.709 14.2537 36.1248 12.648 34.134 11.7562L32.616 11.0782C32.4318 10.9935 32.2758 10.8577 32.1665 10.6871C32.0571 10.5164 31.999 10.3179 31.999 10.1152C31.999 9.9125 32.0571 9.71403 32.1665 9.54335C32.2758 9.37267 32.4318 9.23692 32.616 9.15221L34.05 8.51421C36.0908 7.59697 37.7021 5.93197 38.552 3.86221L39.058 2.64021C39.1323 2.45092 39.2619 2.28841 39.43 2.17386C39.598 2.05931 39.7966 1.99805 40 1.99805C40.2034 1.99805 40.402 2.05931 40.57 2.17386C40.7381 2.28841 40.8677 2.45092 40.942 2.64021L41.448 3.86021C42.297 5.93036 43.9076 7.59608 45.948 8.51421L47.384 9.15421C47.5676 9.23917 47.7231 9.37489 47.832 9.54536C47.941 9.71582 47.9989 9.9139 47.9989 10.1162C47.9989 10.3185 47.941 10.5166 47.832 10.6871C47.7231 10.8575 47.5676 10.9932 47.384 11.0782L45.864 11.7542C43.8736 12.6469 42.2901 14.2533 41.426 16.2562ZM40 22.0002C41.3575 22.0013 42.7052 21.772 43.986 21.3222C43.9953 21.5489 44 21.7749 44 22.0002C44 26.2437 42.3143 30.3133 39.3137 33.3139C36.3131 36.3145 32.2435 38.0002 28 38.0002V45.0002C18 41.0002 4 35.0002 4 22.0002C4 17.7567 5.68571 13.6871 8.68629 10.6865C11.6869 7.68592 15.7565 6.00021 20 6.00021H28C28.2267 6.00021 28.4527 6.00488 28.678 6.01421C28.0406 7.82406 27.8466 9.76036 28.1121 11.6607C28.3776 13.561 29.0949 15.37 30.2039 16.9358C31.313 18.5017 32.7813 19.7788 34.4858 20.66C36.1903 21.5411 38.0812 22.0007 40 22.0002Z" fill="#212429"/>
</svg>
