<svg width="34" height="33" viewBox="0 0 34 33" fill="none" xmlns="http://www.w3.org/2000/svg">
<path d="M16.9984 32.3504C25.8905 32.3504 33.0984 25.1424 33.0984 16.2504C33.0984 15.505 31.9811 15.381 31.5963 16.0202C30.7756 17.3795 29.6563 18.5343 28.3232 19.3971C26.9901 20.2598 25.4781 20.8079 23.9018 20.9997C22.3256 21.1916 20.7263 21.0222 19.2251 20.5045C17.724 19.9867 16.3604 19.1341 15.2376 18.0113C14.1147 16.8884 13.2621 15.5248 12.7444 14.0237C12.2266 12.5225 12.0572 10.9233 12.2491 9.34698C12.441 7.77069 12.989 6.25874 13.8517 4.92563C14.7145 3.59252 15.8693 2.47323 17.2287 1.65252C17.8678 1.26612 17.7439 0.150391 16.9984 0.150391C8.10641 0.150391 0.898438 7.35836 0.898438 16.2504C0.898438 25.1424 8.10641 32.3504 16.9984 32.3504Z" fill="#212429"/>
</svg>
