<svg width="34" height="34" viewBox="0 0 34 34" fill="none" xmlns="http://www.w3.org/2000/svg">
<g clip-path="url(#clip0_413_2327)">
<path d="M10.0449 14.4617L9.16942 17.0498H6.93555L10.6828 6.9873H13.2669L16.998 17.0498H14.6495L13.774 14.4617H10.0449ZM13.3333 12.9805L11.9668 8.91125H11.8682L10.5017 12.9805H13.3333Z" fill="#212429"/>
<path d="M0.898438 4.97422C0.898438 3.90672 1.3225 2.88295 2.07733 2.12811C2.83217 1.37328 3.85594 0.949219 4.92344 0.949219L19.0109 0.949219C20.0784 0.949219 21.1022 1.37328 21.857 2.12811C22.6119 2.88295 23.0359 3.90672 23.0359 4.97422V11.0117H29.0734C30.1409 11.0117 31.1647 11.4358 31.9195 12.1906C32.6744 12.9454 33.0984 13.9692 33.0984 15.0367V29.1242C33.0984 30.1917 32.6744 31.2155 31.9195 31.9703C31.1647 32.7252 30.1409 33.1492 29.0734 33.1492H14.9859C13.9184 33.1492 12.8947 32.7252 12.1398 31.9703C11.385 31.2155 10.9609 30.1917 10.9609 29.1242V23.0867H4.92344C3.85594 23.0867 2.83217 22.6627 2.07733 21.9078C1.3225 21.153 0.898438 20.1292 0.898438 19.0617V4.97422ZM4.92344 2.96172C4.38969 2.96172 3.8778 3.17375 3.50039 3.55117C3.12297 3.92858 2.91094 4.44047 2.91094 4.97422V19.0617C2.91094 19.5955 3.12297 20.1074 3.50039 20.4848C3.8778 20.8622 4.38969 21.0742 4.92344 21.0742H19.0109C19.5447 21.0742 20.0566 20.8622 20.434 20.4848C20.8114 20.1074 21.0234 19.5955 21.0234 19.0617V4.97422C21.0234 4.44047 20.8114 3.92858 20.434 3.55117C20.0566 3.17375 19.5447 2.96172 19.0109 2.96172H4.92344ZM19.2887 23.0767C19.6764 23.6817 20.099 24.2493 20.5565 24.7792C19.0512 25.9364 17.1896 26.7937 14.9859 27.3794C15.3442 27.8161 15.8936 28.6573 16.1029 29.1242C18.3669 28.4017 20.2889 27.4257 21.9109 26.1175C23.4747 27.4559 25.4107 28.4621 27.8076 29.0799C28.0752 28.5688 28.6408 27.7255 29.0734 27.2888C26.8094 26.7797 24.9337 25.8921 23.3982 24.7048C24.7687 23.2014 25.8575 21.3821 26.6604 19.1563H29.0734V17.0492H23.0359V19.1563H24.5755C23.9355 20.8549 23.0863 22.2676 22.0156 23.4429C21.7197 23.1281 21.4409 22.7975 21.1804 22.4528C20.6121 22.816 19.9616 23.0305 19.2887 23.0767Z" fill="#212429"/>
</g>
<defs>
<clipPath id="clip0_413_2327">
<rect width="32.2" height="32.2" fill="white" transform="translate(0.898438 0.949219)"/>
</clipPath>
</defs>
</svg>
