<svg width="499" height="333" viewBox="0 0 499 333" fill="none" xmlns="http://www.w3.org/2000/svg">
<path d="M329.206 43.1806C328.806 52.5051 334.914 62.8301 329.405 68.993C329.405 69.3932 324.814 69.6734 317.749 69.9535C293.637 70.7939 240.463 71.034 240.463 72.4347C240.463 84.0803 232.439 93.805 221.661 96.4462C220.383 96.8064 219.066 97.0065 217.669 97.1266H217.629C216.99 97.1666 216.351 97.2066 215.713 97.2066C212.878 97.2866 210.323 96.9265 207.968 96.1661C207.888 96.1661 207.769 96.1261 207.689 96.0861C186.93 89.4829 184.854 54.7862 208.846 48.7433L314.715 37.5379C320.503 36.5375 329.286 37.2178 329.206 43.1406V43.1806Z" fill="#1C75BC"/>
<path d="M361.701 115.375C361.701 121.138 357.03 125.82 351.281 125.82C349.405 125.82 347.609 125.3 346.092 124.42L345.413 123.979C338.747 119.777 332.12 115.575 325.453 111.333C298.786 94.4453 272.12 77.5572 245.453 60.6691L334.196 56.9873L359.585 109.052C361.262 112.374 361.701 113.014 361.701 115.375Z" fill="#1C75BC"/>
<path d="M374.193 83.9601C374.233 89.5628 369.083 94.005 363.574 93.0845C340.74 92.5643 270.799 79.598 247.406 75.396L295.869 41.98L314.073 39.0186C325.41 45.0214 358.943 68.5527 369.961 76.2364C372.476 77.8772 374.153 80.7186 374.153 83.9601H374.193Z" fill="#1C75BC"/>
<path d="M428.007 333H166.011C162.698 333 160.023 330.319 160.023 326.997C160.023 323.675 162.698 320.994 166.011 320.994H428.007C431.321 320.994 433.995 323.675 433.995 326.997C433.995 330.319 431.321 333 428.007 333Z" fill="#E6E7E8"/>
<path d="M293.153 292.021H301.177C315.747 292.021 327.524 303.866 327.524 318.433V319.514C327.524 320.354 326.845 321.074 325.967 321.074H267.244C266.406 321.074 265.688 320.394 265.688 319.514C265.688 304.346 277.983 292.021 293.113 292.021H293.153Z" fill="#F7941D"/>
<path d="M114.151 178.886C109.64 179.806 108.881 184.368 109.16 188.971C114.071 268.769 245.807 282.496 277.663 221.946C283.931 210.021 291.995 192.612 283.612 180.367C276.386 169.841 259.859 165.88 242.095 170.242C225.208 172.243 211.476 174.444 202.095 176.044C166.286 182.207 147.164 188.13 121.735 181.287C118.462 180.407 115.827 179.526 114.151 178.886Z" fill="#EF4136"/>
<path d="M424.652 318.473V319.514C424.652 320.394 423.974 321.074 423.135 321.074H395.91C392.836 311.47 389.722 301.905 386.648 292.301C387.846 292.101 389.044 292.021 390.281 292.021H398.305C412.876 292.021 424.652 303.866 424.652 318.473Z" fill="#1C75BC"/>
<path d="M396.505 321.074C385.328 321.114 365.527 321.074 354.35 321.074C317.703 320.034 299.02 308.348 284.17 301.265C266.406 292.821 253.751 283.296 245.008 275.572C231.356 263.487 217.823 251.001 213.272 230.951C211.475 223.027 211.276 214.223 213.352 204.338C223.851 162.478 278.621 139.627 337.224 137.066C347.004 167.36 356.785 197.855 366.565 228.35C373.272 249.16 379.979 270.01 386.685 290.82C389.759 300.424 393.472 311.47 396.545 321.074H396.505Z" fill="#FFDF82"/>
<path d="M320.387 292.021H328.411C342.982 292.021 354.758 303.866 354.758 318.433V319.514C354.758 320.354 354.08 321.074 353.201 321.074H294.479C293.64 321.074 292.922 320.394 292.922 319.514C292.922 304.346 305.217 292.021 320.347 292.021H320.387Z" fill="#F7941D"/>
<path d="M334.517 129.102L283.539 157.676L219.268 189.531C220.186 188.33 239.986 159.837 221.184 145.27C221.024 145.149 220.865 144.989 220.665 144.869L217.671 97.1664L217.431 93.6047L217.631 97.1664L220.306 144.509L207.531 96.3661C207.531 96.3661 207.851 96.246 207.97 96.206C207.891 96.206 207.771 96.166 207.691 96.1259L238.03 50.7441L315.555 62.2297L317.751 69.9934L334.517 129.102Z" fill="#FFDF82"/>
<path d="M209.962 96.9263L207.727 96.0859L231.599 49.0233C258.345 56.1067 296.429 37.2977 323.176 44.3811C329.044 66.1115 328.764 107.892 334.713 129.582C334.593 132.944 335.95 135.505 333.435 139.627C329.523 146.15 338.186 161.517 330.122 160.077C330.042 160.077 318.705 159.516 318.625 159.476C317.148 159.196 307.327 148.271 306.13 147.551C312.038 139.307 312.876 132.503 312.876 128.582C312.717 109.412 291.319 89.7629 258.904 83.1197" fill="#1C75BC"/>
<path d="M430.917 268.369C432.314 272.771 429.16 277.293 424.57 277.654C377.504 281.495 294.709 261.526 290.398 199.296C285.727 158.156 320.418 128.622 334.35 128.542C367.045 160.958 368.881 164.599 389.16 192.012C391.316 194.854 393.352 197.695 395.348 200.657C411.396 223.588 424.37 247.799 430.917 268.449V268.369Z" fill="#EF4136"/>
<path d="M328.641 188.611C340.776 204.539 368.92 195.334 369.399 175.325L328.641 188.611Z" fill="#F15A29"/>
<path d="M311.555 216.744C323.69 232.672 351.834 223.468 352.313 203.458L311.555 216.744Z" fill="#F15A29"/>
<path d="M394.669 200.296C386.606 212.302 367.085 212.702 358.422 201.457L388.482 191.652C390.637 194.494 392.673 197.335 394.669 200.296Z" fill="#F15A29"/>
<path d="M221.661 145.03C223.138 145.03 224.256 145.07 226.013 145.07H275.953C284.855 145.07 291.721 136.746 291.721 127.822V109.333C291.721 102.049 288.208 95.246 282.26 91.0439C276.192 86.8019 270.284 85.0411 266.452 84.0406C251.561 80.1187 236.671 85.9615 217.43 92.8448" fill="#FBB040"/>
<path d="M274.829 102.289V118.297C274.829 122.379 271.516 125.66 267.484 125.66H248.562C247.165 125.66 246.047 124.54 246.047 123.139V102.809C246.047 95.8862 250.678 89.4831 257.464 88.1224C266.726 86.2415 274.869 93.2849 274.869 102.289H274.829Z" fill="white"/>
<mask id="mask0_1463_4470" style="mask-type:luminance" maskUnits="userSpaceOnUse" x="246" y="87" width="29" height="39">
<path d="M274.829 102.289V118.297C274.829 122.379 271.516 125.66 267.484 125.66H248.562C247.165 125.66 246.047 124.54 246.047 123.139V102.809C246.047 95.8862 250.678 89.4831 257.464 88.1224C266.726 86.2415 274.869 93.2849 274.869 102.289H274.829Z" fill="white"/>
</mask>
<g mask="url(#mask0_1463_4470)">
<path d="M267.325 126.221C264.89 130.383 260.06 132.944 254.79 131.983C251.277 131.343 248.443 129.102 246.727 126.06C249.082 122.939 252.794 120.898 256.986 120.898C261.178 120.898 265.01 122.979 267.325 126.18V126.221Z" fill="white"/>
<path d="M256.985 120.938C261.216 120.938 265.009 123.019 267.324 126.221C268.362 124.46 268.961 122.379 268.961 120.178V107.572C268.961 101.649 264.969 96.0862 259.1 95.0457C251.516 93.7251 244.969 99.6079 244.969 106.891V119.457C244.969 121.819 245.568 124.1 246.685 126.061C249.041 122.939 252.753 120.898 256.945 120.898L256.985 120.938Z" fill="#3C2415"/>
<path d="M256.827 117.897C260.001 117.897 262.575 115.317 262.575 112.134C262.575 108.951 260.001 106.371 256.827 106.371C253.652 106.371 251.078 108.951 251.078 112.134C251.078 115.317 253.652 117.897 256.827 117.897Z" fill="white"/>
</g>
<path d="M205.735 153.594C205.415 153.594 205.096 153.514 205.096 153.514C202.661 153.434 200.625 151.793 200.625 149.352V129.782L204.737 127.381C206.493 127.381 210.805 127.461 213.519 127.461L223.02 127.701C224.737 128.182 226.214 128.222 227.172 128.182C228.888 128.102 227.611 124.74 229.088 122.899C230.246 121.458 232.282 121.138 234.038 121.098C234.637 123.819 235.914 131.583 231.803 139.387C224.378 153.434 206.773 153.554 205.735 153.514V153.594Z" fill="#F15A29"/>
<path d="M228.045 133.984C225.61 140.227 219.661 143.229 215.071 144.549C212.955 142.909 210.64 140.468 209.442 136.826C207.965 132.264 209.043 128.342 209.562 126.861H206.328L209.043 126.141C210.32 126.141 213.514 126.141 215.55 126.141L222.536 126.341C223.813 126.701 224.891 126.741 225.61 126.701C226.847 126.661 225.929 124.18 227.007 122.819C227.845 121.739 227.685 121.258 228.963 121.218C229.162 124.3 229.322 130.623 228.045 133.944V133.984Z" fill="#FBB040"/>
<path d="M234.193 122.219C234.193 122.219 234.113 122.459 234.113 122.539C232.996 126.341 229.243 128.221 228.525 128.582C227.566 129.062 226.888 129.262 226.409 129.382C226.409 129.382 226.169 129.422 225.93 129.502C224.413 129.782 209.842 129.662 208.085 129.662H203.375C202.776 129.742 201.898 129.942 200.94 130.382C199.383 131.063 198.465 132.063 198.145 132.383C196.988 133.664 196.509 135.025 196.269 135.825H196.229C196.309 136.065 196.349 136.265 196.349 136.505C196.748 140.147 194.353 143.749 190.8 144.669C190.201 144.789 189.642 144.869 189.083 144.909C188.006 144.949 186.968 144.949 185.97 144.949H185.69C183.255 144.949 181.299 142.948 181.299 140.507V133.544C181.299 129.782 181.259 129.342 181.299 128.702C181.578 124.5 182.537 121.018 183.614 118.337C188.764 106.051 199.543 99.6477 207.527 96.3661C207.686 96.2861 207.846 96.2461 207.966 96.206C212.397 94.5252 216.588 93.4047 217.107 93.2046L221.299 96.166C221.299 96.166 221.539 96.3661 221.658 96.4862C224.413 98.8073 230.96 105.13 233.275 115.415C233.355 115.695 233.435 116.136 233.554 116.696C233.794 117.936 234.113 119.857 234.193 122.219Z" fill="#EF4136"/>
<path d="M219.908 142.628C215.317 145.47 210.048 145.39 209.329 145.43C207.533 145.39 206.215 145.95 206.215 141.868L206.016 126.981L206.335 126.901H209.569C209.05 128.382 208.65 132.183 210.127 136.746C211.325 140.387 214.998 144.749 219.908 142.668V142.628Z" fill="#EF4136"/>
<path d="M245.411 4.08203H293.914C323.934 4.08203 348.285 28.4938 348.285 58.5882V59.6287H191V58.5882C191 28.4938 215.351 4.08203 245.371 4.08203H245.411Z" fill="#F7941D"/>
<path d="M349.802 56.0269H174.273V60.1889H349.802V56.0269Z" fill="#F15A29"/>
<path d="M244.49 76.6368H192.275C182.415 76.6368 174.391 69.2333 174.391 60.1089H317.584L299.061 66.9522C281.696 73.3552 263.173 76.6368 244.49 76.6368Z" fill="#F7941D"/>
<path d="M229.248 58.0679C228.09 58.0679 227.172 57.1475 227.172 55.9869C227.172 25.0921 251.683 0 281.862 0C283.02 0 283.938 0.920442 283.938 2.081C283.938 3.24156 283.02 4.162 281.862 4.162C253.998 4.162 231.324 27.4132 231.324 55.9869C231.324 57.1475 230.405 58.0679 229.248 58.0679Z" fill="#F15A29"/>
<path d="M285.85 4.082H281.539V0.0800781H282.098C284.174 0.0800781 285.85 1.64083 285.85 3.56175V4.082Z" fill="#F15A29"/>
<path d="M210.599 58.1079C209.442 58.1079 208.523 57.1875 208.523 56.0269C208.523 20.9701 235.509 0.0400391 280.699 0.0400391C281.857 0.0400391 282.775 0.960481 282.775 2.12104C282.775 3.2816 281.857 4.20204 280.699 4.20204C237.466 4.20204 212.635 23.0911 212.635 56.0269C212.635 57.1875 211.717 58.1079 210.559 58.1079H210.599Z" fill="#F15A29"/>
<path d="M121.922 156.328L137.688 151.496L157.157 215.331C157.927 217.857 156.522 220.505 154.003 221.278L147.36 223.314C144.84 224.086 142.198 222.678 141.428 220.152L121.96 156.316L121.922 156.328Z" fill="#F7941D"/>
<path d="M136.198 146.846L120.422 151.648L125.212 167.463L140.988 162.661L136.198 146.846Z" fill="#F15A29"/>
<path d="M131.72 132.384C144.974 128.302 159.025 135.785 163.057 149.112L159.984 150.072C158.427 145.35 153.397 142.709 148.646 144.189C144.734 145.39 142.179 149.032 142.179 152.954C142.179 154.474 141.301 155.835 139.824 156.275L121.78 161.798C120.542 162.158 119.305 161.638 118.467 160.637C117.109 159.037 114.914 158.316 112.798 158.957C110.682 159.597 109.245 161.438 109.045 163.519C108.926 164.799 108.207 165.96 106.97 166.36L103.736 167.361C101.98 167.921 100.103 166.92 99.5444 165.119L94.1552 147.431C93.5963 145.67 94.5943 143.789 96.3907 143.229L99.6242 142.228C100.862 141.868 102.099 142.389 102.938 143.389C104.295 144.99 106.49 145.71 108.606 145.07C110.722 144.43 112.159 142.589 112.359 140.508C112.479 139.227 113.197 138.066 114.435 137.666L131.72 132.384Z" fill="#C49A6C"/>
<path d="M451.11 115.739L445.37 112.69L452.995 98.3394L458.735 101.389M445.011 127.22L439.271 124.17L442.321 118.43L448.061 121.48M405.996 117.531L469.137 151.079L466.539 79.774L405.996 117.531Z" fill="url(#paint0_linear_1463_4470)"/>
<path d="M55.1531 73.526L50.5879 78.153L39.0203 66.7402L43.5855 62.1131M64.4072 82.6562L59.842 87.2833L55.215 82.7181L59.7801 78.0911M43.957 117.266L94.1734 66.3687L25.1082 48.4487L43.957 117.266Z" fill="url(#paint1_linear_1463_4470)"/>
<defs>
<linearGradient id="paint0_linear_1463_4470" x1="483.623" y1="123.813" x2="420.482" y2="90.2654" gradientUnits="userSpaceOnUse">
<stop stop-color="#FFC757"/>
<stop offset="1" stop-color="#EB5E55"/>
</linearGradient>
<linearGradient id="paint1_linear_1463_4470" x1="72.1949" y1="44.6843" x2="21.9785" y2="95.5818" gradientUnits="userSpaceOnUse">
<stop stop-color="#FFC757"/>
<stop offset="1" stop-color="#EB5E55"/>
</linearGradient>
</defs>
</svg>
