<svg width="49" height="50" viewBox="0 0 49 50" fill="none" xmlns="http://www.w3.org/2000/svg">
<path d="M32.1562 6.03452C32.1562 5.65885 32.5503 5.41998 32.8423 5.65477C33.09 5.85485 33.3098 6.0876 33.5017 6.35302L39.6533 14.9219C39.7921 15.1179 39.641 15.3711 39.4001 15.3711H32.6667C32.5313 15.3711 32.4015 15.3173 32.3057 15.2216C32.21 15.1258 32.1562 14.996 32.1562 14.8606V6.03452Z" fill="url(#paint0_linear_969_2368)"/>
<path fill-rule="evenodd" clip-rule="evenodd" d="M28.4167 5.77897C28.4167 5.6436 28.3629 5.51377 28.2672 5.41805C28.1714 5.32233 28.0416 5.26855 27.9062 5.26855H13.6146C12.1255 5.26855 10.6974 5.86009 9.64447 6.91303C8.59153 7.96597 8 9.39406 8 10.8831V39.4665C8 40.9556 8.59153 42.3836 9.64447 43.4366C10.6974 44.4895 12.1255 45.0811 13.6146 45.0811H34.0312C35.5203 45.0811 36.9484 44.4895 38.0014 43.4366C39.0543 42.3836 39.6458 40.9556 39.6458 39.4665V19.3499C39.6458 19.2146 39.5921 19.0847 39.4963 18.989C39.4006 18.8933 39.2708 18.8395 39.1354 18.8395H29.9479C29.5418 18.8395 29.1523 18.6782 28.8652 18.391C28.578 18.1039 28.4167 17.7144 28.4167 17.3083V5.77897ZM29.9479 25.6852C30.354 25.6852 30.7435 25.8465 31.0307 26.1337C31.3178 26.4209 31.4792 26.8104 31.4792 27.2165C31.4792 27.6226 31.3178 28.0121 31.0307 28.2992C30.7435 28.5864 30.354 28.7477 29.9479 28.7477H17.6979C17.2918 28.7477 16.9023 28.5864 16.6152 28.2992C16.328 28.0121 16.1667 27.6226 16.1667 27.2165C16.1667 26.8104 16.328 26.4209 16.6152 26.1337C16.9023 25.8465 17.2918 25.6852 17.6979 25.6852H29.9479ZM29.9479 33.8519C30.354 33.8519 30.7435 34.0132 31.0307 34.3004C31.3178 34.5875 31.4792 34.977 31.4792 35.3831C31.4792 35.7893 31.3178 36.1787 31.0307 36.4659C30.7435 36.7531 30.354 36.9144 29.9479 36.9144H17.6979C17.2918 36.9144 16.9023 36.7531 16.6152 36.4659C16.328 36.1787 16.1667 35.7893 16.1667 35.3831C16.1667 34.977 16.328 34.5875 16.6152 34.3004C16.9023 34.0132 17.2918 33.8519 17.6979 33.8519H29.9479Z" fill="url(#paint1_linear_969_2368)"/>
<defs>
<linearGradient id="paint0_linear_969_2368" x1="39.7063" y1="10.4663" x2="32.1562" y2="10.4663" gradientUnits="userSpaceOnUse">
<stop stop-color="#FFC757"/>
<stop offset="1" stop-color="#EB5E55"/>
</linearGradient>
<linearGradient id="paint1_linear_969_2368" x1="39.6458" y1="25.1748" x2="8" y2="25.1748" gradientUnits="userSpaceOnUse">
<stop stop-color="#FFC757"/>
<stop offset="1" stop-color="#EB5E55"/>
</linearGradient>
</defs>
</svg>
