<svg width="53" height="54" viewBox="0 0 53 54" fill="none" xmlns="http://www.w3.org/2000/svg">
<path d="M39.75 28.9763H38.2483L33.8317 33.3929H38.0496L41.9583 37.8096H11.0417L14.9725 33.3929H19.4996L15.0829 28.9763H13.25L6.625 35.6013V44.4346C6.625 45.606 7.09033 46.7294 7.91861 47.5577C8.7469 48.3859 9.87029 48.8513 11.0417 48.8513H41.9583C43.1297 48.8513 44.2531 48.3859 45.0814 47.5577C45.9097 46.7294 46.375 45.606 46.375 44.4346V35.6013L39.75 28.9763ZM37.5417 17.8242L26.6104 28.7554L18.7708 20.9379L29.7242 10.0067L37.5417 17.8242ZM28.1783 5.32502L14.1112 19.3921C13.9065 19.5964 13.7441 19.8391 13.6333 20.1062C13.5225 20.3734 13.4654 20.6598 13.4654 20.949C13.4654 21.2382 13.5225 21.5246 13.6333 21.7917C13.7441 22.0589 13.9065 22.3016 14.1112 22.5059L25.0425 33.3929C25.9037 34.2984 27.295 34.2984 28.1562 33.3929L42.2012 19.3921C42.406 19.1878 42.5684 18.9451 42.6792 18.678C42.79 18.4108 42.8471 18.1245 42.8471 17.8352C42.8471 17.546 42.79 17.2596 42.6792 16.9925C42.5684 16.7253 42.406 16.4827 42.2012 16.2784L31.27 5.3471C31.0708 5.13864 30.8317 4.97232 30.5669 4.85802C30.3022 4.74372 30.0172 4.68376 29.7288 4.6817C29.4405 4.67964 29.1547 4.73552 28.8883 4.84603C28.622 4.95654 28.3805 5.11943 28.1783 5.32502Z" fill="url(#paint0_linear_969_2374)"/>
<defs>
<linearGradient id="paint0_linear_969_2374" x1="46.375" y1="26.7665" x2="6.625" y2="26.7665" gradientUnits="userSpaceOnUse">
<stop stop-color="#FFC757"/>
<stop offset="1" stop-color="#EB5E55"/>
</linearGradient>
</defs>
</svg>
