<svg width="21" height="19" viewBox="0 0 21 19" fill="none" xmlns="http://www.w3.org/2000/svg">
<path d="M2.11328 18.5C1.56328 18.5 1.09261 18.3043 0.701281 17.913C0.309948 17.5217 0.113948 17.0507 0.113281 16.5V2.5C0.113281 1.95 0.309281 1.47933 0.701281 1.088C1.09328 0.696667 1.56395 0.500667 2.11328 0.5H18.1133C18.6633 0.5 19.1343 0.696 19.5263 1.088C19.9183 1.48 20.1139 1.95067 20.1133 2.5V16.5C20.1133 17.05 19.9176 17.521 19.5263 17.913C19.1349 18.305 18.6639 18.5007 18.1133 18.5H2.11328ZM2.11328 16.5H18.1133V2.5H2.11328V16.5ZM3.11328 14.5H8.11328V12.5H3.11328V14.5ZM12.6633 12.5L17.6133 7.55L16.1883 6.125L12.6633 9.675L11.2383 8.25L9.83828 9.675L12.6633 12.5ZM3.11328 10.5H8.11328V8.5H3.11328V10.5ZM3.11328 6.5H8.11328V4.5H3.11328V6.5Z" fill="#212429"/>
</svg>
