<svg width="40" height="21" viewBox="0 0 40 21" fill="none" xmlns="http://www.w3.org/2000/svg">
<path d="M11.5148 0.951254C11.3929 0.691948 11.1997 0.472694 10.9578 0.319116C10.7159 0.165539 10.4353 0.0839844 10.1488 0.0839844C9.86227 0.0839844 9.58166 0.165539 9.33977 0.319116C9.09788 0.472694 8.9047 0.691948 8.78281 0.951254L0.732806 18.0575C0.571657 18.4183 0.558395 18.8278 0.695867 19.1983C0.833338 19.5687 1.11058 19.8704 1.46807 20.0387C1.82555 20.207 2.23478 20.2284 2.60787 20.0983C2.98095 19.9683 3.28816 19.6971 3.46352 19.343L5.42445 15.1784H14.8731L16.8328 19.343C17.0033 19.7053 17.3107 19.985 17.6874 20.1206C18.0641 20.2563 18.4793 20.2367 18.8415 20.0662C19.2038 19.8958 19.4835 19.5884 19.6192 19.2117C19.7548 18.8349 19.7352 18.4198 19.5648 18.0575L11.5148 0.951254ZM6.84578 12.1596L10.1488 5.13851L13.4531 12.1596H6.84578ZM25.2425 5.11587C23.5005 5.11587 22.1269 5.60139 21.1609 6.55984C21.009 6.69669 20.8865 6.86297 20.8008 7.0486C20.7151 7.23423 20.668 7.43534 20.6624 7.63972C20.6568 7.8441 20.6927 8.04749 20.7681 8.23756C20.8434 8.42762 20.9566 8.60039 21.1008 8.74539C21.2449 8.89039 21.417 9.00459 21.6066 9.08107C21.7963 9.15754 21.9994 9.1947 22.2038 9.19028C22.4082 9.18586 22.6096 9.13995 22.7958 9.05535C22.9819 8.97075 23.1489 8.84922 23.2866 8.69812C23.664 8.32078 24.3256 8.12959 25.2425 8.12959C26.6261 8.12959 27.7582 9.0327 27.7582 10.1421V10.6943C26.9696 10.3305 26.111 10.1437 25.2425 10.1471C22.1911 10.1471 19.7082 12.4036 19.7082 15.1784C19.7082 17.9531 22.1911 20.2096 25.2425 20.2096C26.2062 20.212 27.1559 19.9797 28.0097 19.5329C28.1889 19.803 28.4502 20.0083 28.7551 20.1183C29.0599 20.2283 29.3921 20.2373 29.7025 20.1439C30.0128 20.0505 30.2849 19.8597 30.4784 19.5997C30.6719 19.3397 30.7766 19.0244 30.7769 18.7002V10.1471C30.7769 7.37239 28.294 5.11587 25.2425 5.11587ZM25.2425 17.1909C23.8589 17.1909 22.7269 16.2878 22.7269 15.1784C22.7269 14.069 23.8589 13.1659 25.2425 13.1659C26.6261 13.1659 27.7582 14.069 27.7582 15.1784C27.7582 16.2878 26.6261 17.1909 25.2425 17.1909Z" fill="#212429"/>
<path d="M35.2734 11.7997V3.13477" stroke="#212429" stroke-width="1.15" stroke-linecap="round" stroke-linejoin="round"/>
<path d="M38.551 6.35367L35.2745 2.8877L31.998 6.35367" stroke="#212429" stroke-width="1.15" stroke-linecap="round" stroke-linejoin="round"/>
</svg>
