<svg width="16" height="13" viewBox="0 0 16 13" fill="none" xmlns="http://www.w3.org/2000/svg">
<path d="M14.5046 2.32012C14.6992 2.32034 14.8864 2.39485 15.0279 2.52843C15.1694 2.66201 15.2545 2.84458 15.2659 3.03883C15.2773 3.23308 15.2141 3.42436 15.0892 3.57358C14.9643 3.72279 14.7872 3.81869 14.594 3.84167L14.5046 3.84702V11.4815C14.6992 11.4817 14.8864 11.5562 15.0279 11.6898C15.1694 11.8234 15.2545 12.0059 15.2659 12.2002C15.2773 12.3944 15.2141 12.5857 15.0892 12.7349C14.9643 12.8842 14.7872 12.9801 14.594 13.003L14.5046 13.0084H0.762601C0.568014 13.0082 0.380853 12.9337 0.239359 12.8001C0.0978645 12.6665 0.0127168 12.4839 0.00131315 12.2897C-0.0100905 12.0954 0.0531105 11.9041 0.178003 11.7549C0.302895 11.6057 0.480052 11.5098 0.673277 11.4868L0.762601 11.4815V3.84702C0.568014 3.8468 0.380853 3.77229 0.239359 3.63871C0.0978645 3.50513 0.0127168 3.32257 0.00131315 3.12831C-0.0100905 2.93406 0.0531105 2.74278 0.178003 2.59357C0.302895 2.44435 0.480052 2.34845 0.673277 2.32547L0.762601 2.32012H14.5046ZM12.9777 3.84702H2.28949V11.4815H3.81639V6.13736C3.81639 5.93488 3.89682 5.74069 4.04 5.59752C4.18317 5.45435 4.37736 5.37391 4.57983 5.37391C4.78231 5.37391 4.9765 5.45435 5.11967 5.59752C5.26285 5.74069 5.34328 5.93488 5.34328 6.13736V11.4815H6.87017V6.13736C6.87017 5.93488 6.95061 5.74069 7.09378 5.59752C7.23696 5.45435 7.43114 5.37391 7.63362 5.37391C7.8361 5.37391 8.03028 5.45435 8.17346 5.59752C8.31663 5.74069 8.39707 5.93488 8.39707 6.13736V11.4815H9.92396V6.13736C9.92396 5.93488 10.0044 5.74069 10.1476 5.59752C10.2907 5.45435 10.4849 5.37391 10.6874 5.37391C10.8899 5.37391 11.0841 5.45435 11.2272 5.59752C11.3704 5.74069 11.4509 5.93488 11.4509 6.13736V11.4815H12.9777V3.84702ZM12.2143 0.0297852C12.4168 0.0297852 12.611 0.11022 12.7541 0.253394C12.8973 0.396568 12.9777 0.590753 12.9777 0.793232C12.9777 0.99571 12.8973 1.1899 12.7541 1.33307C12.611 1.47624 12.4168 1.55668 12.2143 1.55668H3.05294C2.85046 1.55668 2.65628 1.47624 2.5131 1.33307C2.36993 1.1899 2.28949 0.99571 2.28949 0.793232C2.28949 0.590753 2.36993 0.396568 2.5131 0.253394C2.65628 0.11022 2.85046 0.0297852 3.05294 0.0297852H12.2143Z" fill="#212429"/>
</svg>
