<svg width="52" height="53" viewBox="0 0 52 53" fill="none" xmlns="http://www.w3.org/2000/svg">
<path d="M47.037 19.1408C49.7453 16.4325 48.5103 13.2692 47.037 11.7308L40.537 5.23084C37.807 2.52251 34.6653 3.75751 33.127 5.23084L29.4437 8.93584H23.832C19.7153 8.93584 17.332 11.1025 16.1187 13.5942L6.49867 23.2142V31.8808L4.96033 33.3975C2.252 36.1275 3.487 39.2692 4.96033 40.8075L11.4603 47.3075C12.6303 48.4775 13.887 48.9108 15.0787 48.9108C16.617 48.9108 18.0253 48.1525 18.8703 47.3075L24.7203 41.4358H32.4987C36.182 41.4358 38.0453 39.1392 38.717 36.8858C41.1653 36.2358 42.5087 34.3725 43.0503 32.5525C46.4087 31.6858 47.6653 28.5008 47.6653 26.2692V19.7692H46.387L47.037 19.1408ZM43.332 26.2692C43.332 27.2442 42.9203 28.4358 41.1653 28.4358H38.9987V30.6025C38.9987 31.5775 38.587 32.7692 36.832 32.7692H34.6653V34.9358C34.6653 35.9108 34.2537 37.1025 32.4987 37.1025H22.9437L15.837 44.2092C15.1653 44.8375 14.7753 44.4692 14.537 44.2308L8.05867 37.7742C7.43033 37.1025 7.79867 36.7125 8.037 36.4742L10.832 33.6575V24.9908L15.1653 20.6575V24.1025C15.1653 26.7242 16.8987 30.6025 21.6653 30.6025C26.432 30.6025 28.1653 26.7242 28.1653 24.1025H43.332V26.2692ZM43.9603 16.0642L40.277 19.7692H23.832V24.1025C23.832 25.0775 23.4203 26.2692 21.6653 26.2692C19.9103 26.2692 19.4987 25.0775 19.4987 24.1025V17.6025C19.4987 16.6058 19.867 13.2692 23.832 13.2692H31.2203L36.1603 8.32917C36.832 7.70084 37.222 8.06917 37.4603 8.30751L43.9387 14.7642C44.567 15.4358 44.1987 15.8258 43.9603 16.0642Z" fill="url(#paint0_linear_969_2363)"/>
<defs>
<linearGradient id="paint0_linear_969_2363" x1="48.638" y1="26.2704" x2="3.35938" y2="26.2704" gradientUnits="userSpaceOnUse">
<stop stop-color="#FFC757"/>
<stop offset="1" stop-color="#EB5E55"/>
</linearGradient>
</defs>
</svg>
