<svg width="20" height="19" viewBox="0 0 20 19" fill="none" xmlns="http://www.w3.org/2000/svg">
<path d="M16.7662 12.5153H4.16486C3.78393 12.5153 3.50077 12.6499 3.27862 12.8681C2.91177 13.2279 2.78036 13.7598 2.72247 14.2698C2.6552 14.8604 2.67945 15.4009 2.84371 15.9868C3.02832 16.6399 3.48512 17.2086 4.16173 17.2086H16.7662M15.5194 17.2086C14.3155 16.1041 13.822 14.1908 15.5194 12.5153M9.58398 5.08438C9.58398 3.12886 7.46499 2.34666 7.46499 2.34666M9.58398 5.41369C9.58398 5.41369 4.92282 3.01623 4.92282 6.96793C4.9236 10.9204 7.04338 12.5153 7.88894 12.5153C8.5632 12.5153 8.96056 11.7261 9.58398 11.7261C10.2074 11.7261 10.4303 12.5153 11.2782 12.5153C12.123 12.5153 14.2444 10.9196 14.2444 6.96793C14.2444 3.01623 9.58398 5.41369 9.58398 5.41369ZM10.0072 4.69328C10.0072 1.57228 11.5332 2.34666 12.2967 1.56445C13.0593 3.51997 12.0385 3.91342 10.0072 4.69328Z" stroke="#212429" stroke-width="1.52213" stroke-linecap="round" stroke-linejoin="round"/>
</svg>
