<svg width="105" height="97" viewBox="0 0 105 97" fill="none" xmlns="http://www.w3.org/2000/svg">
<g clip-path="url(#clip0_1301_4853)">
<path d="M70.5529 12.9418C70.9127 16.0467 73.4575 19.1383 71.9653 21.4669C71.9919 21.6008 70.4863 21.9354 68.168 22.3904C60.2669 23.9295 42.7461 26.8068 42.8261 27.2619C43.439 31.1029 41.2938 34.7431 37.883 36.1751C37.4832 36.3625 37.0569 36.4963 36.6039 36.6034C36.3907 36.6569 36.1908 36.697 35.9776 36.7372C35.045 36.9112 34.1923 36.9246 33.3662 36.8041C33.3395 36.8041 33.2996 36.8041 33.2729 36.8041C26.0914 35.7067 23.5998 24.3577 31.1944 21.1056L65.5165 11.8578C67.3685 11.2288 70.2998 10.9879 70.5796 12.9552L70.5529 12.9418Z" fill="#1C75BC"/>
<path d="M85.0081 35.0911C85.3146 36.9915 84.0088 38.7849 82.1168 39.0927C81.5039 39.1863 80.8777 39.1194 80.3315 38.9053L80.0783 38.7982C77.6667 37.7543 75.2551 36.7105 72.8435 35.6666C63.1704 31.491 53.4973 27.3021 43.8242 23.1265C53.5106 21.1725 63.197 19.2186 72.8834 17.2646L83.9555 33.1238C84.675 34.1275 84.8615 34.3149 84.9815 35.1045L85.0081 35.0911Z" fill="#1C75BC"/>
<path d="M87.4865 24.0498C87.7929 25.8966 86.314 27.6365 84.462 27.6231C76.9074 28.6402 53.1777 28.038 45.25 27.8774L59.4932 14.2934L65.3423 12.3662C69.3927 13.7447 81.6773 19.7671 85.7011 21.7211C86.6204 22.136 87.3133 22.9791 87.4865 24.0498Z" fill="#1C75BC"/>
<path d="M58.1615 79.2689C56.8292 83.7255 53.6981 87.5397 49.6343 90.4171C49.621 90.4305 49.5943 90.4573 49.5677 90.4573C49.1946 90.7383 48.8082 90.9926 48.4085 91.2469C39.4682 96.9749 26.8239 98.4471 19.0828 93.1741C16.1782 91.1934 13.6334 88.0349 12.0079 84.6624C11.9945 84.649 11.9812 84.6356 11.9812 84.6222C11.1818 82.9493 10.5955 81.2362 10.3024 79.5767C9.87605 77.1811 10.0359 74.906 10.9686 73.0725C11.0086 73.0056 11.0885 72.845 11.2218 72.6175C11.6614 71.8814 12.6341 70.5163 14.0864 69.8204C14.0864 69.8204 14.0864 69.8204 14.0997 69.8204C14.4728 69.633 14.8725 69.4992 15.3122 69.4189C15.4854 69.3921 15.6453 69.3921 15.7918 69.4055C16.0983 69.4323 16.3647 69.5393 16.498 69.5795C17.4307 69.8605 18.0569 70.436 18.5365 71.0382C19.0162 71.6405 19.3493 72.2695 19.7223 72.6308C20.1221 73.019 20.7083 73.2197 21.4278 73.2732C24.1325 73.5008 28.8225 71.5602 33.2593 68.4419C39.0285 64.3868 41.4268 60.4387 43.8917 58.4714C44.971 57.6149 46.0502 57.1331 47.4359 57.2C47.8356 57.2134 48.222 57.2803 48.595 57.374C50.0607 57.7487 51.2731 58.6588 52.2991 59.6759C52.6055 59.9837 52.8853 60.2915 53.1518 60.5993C56.536 64.4805 60.2933 72.0955 58.1615 79.2823V79.2689Z" fill="#EF4136"/>
<path d="M99.8244 86.6697C100.69 88.3828 99.4513 90.417 97.5327 90.417H49.6203C49.6203 90.417 49.5803 90.4572 49.5536 90.4572C49.5403 90.4572 49.5137 90.4438 49.5003 90.417C46.4225 88.0214 43.7178 85.144 42.079 81.0354C41.0797 78.5194 40.5601 75.6152 40.72 72.2426C40.8798 70.4493 41.2796 68.7228 41.9058 67.0499C41.9058 67.0499 41.9324 67.0098 41.9457 66.9563C42.1456 66.4076 42.3854 65.8455 42.6519 65.3101C44.0109 62.4327 46.0362 59.7695 48.581 57.3605C53.7906 52.3819 61.1587 48.4473 69.4328 45.784C70.1522 45.5565 70.8717 45.3424 71.5912 45.1282C72.9636 44.7268 74.3492 44.3654 75.7616 44.0442C76.2279 43.9238 76.6942 43.8167 77.1739 43.723C77.467 43.6561 77.7601 43.5892 78.0533 43.5356C82.8632 53.0243 87.6731 62.58 92.483 72.149C94.4549 76.0569 96.4401 79.9781 98.412 83.886C98.7851 84.6221 99.1582 85.3448 99.5179 86.0809C99.6112 86.2549 99.6911 86.4155 99.7844 86.5894C99.7844 86.6028 99.7844 86.6162 99.7844 86.6296C99.7844 86.6296 99.7844 86.6564 99.7977 86.6697H99.8244Z" fill="#FFDF82"/>
<path d="M76.772 41.0333L61.4496 53.1451L41.9169 67.0369C42.1567 66.5953 47.2064 56.143 40.2514 52.3154C40.1981 52.2886 40.1315 52.2351 40.0649 52.2083L36.5874 36.6035L36.3209 35.4392L36.574 36.6035L39.9183 52.1013L33.2031 36.8712C33.2031 36.8712 33.2964 36.8176 33.3364 36.7909C33.3097 36.7909 33.2697 36.7909 33.2431 36.7909L40.8776 20.2091L67.0323 19.9414L68.1648 22.3905L76.772 41.0333Z" fill="#FFDF82"/>
<path d="M34.0283 36.9511L33.2422 36.8039L38.665 20.008C47.8451 20.9448 59.4235 12.7409 68.6036 13.6777C71.668 20.5433 73.7599 34.3682 76.8377 41.2204C76.9709 42.3312 77.5572 43.1074 76.9443 44.6063C75.985 46.9618 79.649 51.5923 76.9176 51.5388C76.891 51.5388 73.1337 51.9537 73.0937 51.9537C72.5874 51.9403 68.7901 48.8354 68.3504 48.6614C69.8693 45.6234 69.7894 43.3349 69.5762 42.0367C68.5236 35.7065 61.7685 32.6417 54.9866 28.9613L34.0016 36.9511H34.0283Z" fill="#1C75BC"/>
<path d="M40.3999 52.2218C40.8929 52.1549 41.266 52.1013 41.8389 52.0077L58.2938 49.3845C61.225 48.9161 63.0504 45.8112 62.5841 42.8669C62.0245 39.307 61.4648 35.7471 60.9052 32.1871C59.8793 31.6116 58.8267 31.0228 57.7608 30.4473C56.8282 29.9387 55.9088 29.4436 55.0028 28.9618C42.5717 28.4934 42.5051 33.1239 36.2695 35.2117L40.3866 52.2084L40.3999 52.2218Z" fill="#FBB040"/>
<path d="M55.6955 35.3187L56.5349 40.6051C56.7481 41.9568 55.8287 43.2148 54.4963 43.429L48.2608 44.4193C47.7945 44.4862 47.3681 44.1784 47.2882 43.71L46.2356 37.005C45.8758 34.7165 47.0617 32.361 49.2334 31.558C52.1913 30.4472 55.2292 32.3476 55.6955 35.3187Z" fill="white"/>
<mask id="mask0_1301_4853" style="mask-type:luminance" maskUnits="userSpaceOnUse" x="46" y="31" width="11" height="14">
<path d="M55.6955 35.3187L56.5349 40.6051C56.7481 41.9568 55.8287 43.2148 54.4963 43.429L48.2608 44.4193C47.7945 44.4862 47.3681 44.1784 47.2882 43.71L46.2356 37.005C45.8758 34.7165 47.0617 32.361 49.2334 31.558C52.1913 30.4472 55.2292 32.3476 55.6955 35.3187Z" fill="white"/>
</mask>
<g mask="url(#mask0_1301_4853)">
<path d="M53.6171 44.9282C53.0308 46.4271 51.5785 47.5245 49.7798 47.4844C48.5807 47.4576 47.5281 46.8553 46.8086 45.9587C47.4215 44.8077 48.5407 43.9378 49.9264 43.7237C51.312 43.5095 52.6844 43.9913 53.6171 44.9282Z" fill="white"/>
<path d="M49.9227 43.7234C51.3217 43.4959 52.6808 43.9911 53.6134 44.9279C53.8666 44.2855 53.9598 43.5762 53.8399 42.8401L53.1871 38.678C52.8806 36.7106 51.2684 35.0913 49.2832 35.0645C46.725 35.0243 44.8597 37.3129 45.2461 39.7218L45.8989 43.8706C46.0189 44.6602 46.3386 45.3696 46.8183 45.9584C47.4312 44.8075 48.5504 43.9376 49.9361 43.7234H49.9227Z" fill="#3C2415"/>
<path d="M49.4186 42.7465C50.4783 42.7465 51.3373 41.8836 51.3373 40.8193C51.3373 39.7549 50.4783 38.8921 49.4186 38.8921C48.359 38.8921 47.5 39.7549 47.5 40.8193C47.5 41.8836 48.359 42.7465 49.4186 42.7465Z" fill="white"/>
<path d="M55.6128 28.7296L43.4531 30.6641L44.339 36.2819L56.4986 34.3474L55.6128 28.7296Z" fill="#F15A29"/>
</g>
<path d="M43.1316 32.2807L41.8125 32.0933C41.8791 31.5981 42.3588 30.1661 43.0649 29.7646C43.5712 29.4702 44.1442 29.3632 44.5972 29.2695L54.8165 27.6367L55.0297 28.9617L44.837 30.581C44.4639 30.6613 44.0509 30.7416 43.7178 30.929C43.5446 31.0628 43.1849 31.8792 43.1316 32.2673V32.2807Z" fill="#F15A29"/>
<path d="M43.3451 44.031C43.3451 44.031 43.3318 44.1113 43.3451 44.1381C43.1719 45.4496 42.0394 46.266 41.8129 46.4266C41.5198 46.6274 41.3066 46.7478 41.16 46.8014C41.16 46.8014 41.0934 46.8281 41.0001 46.8683C40.5205 47.0423 35.7106 47.7649 35.1243 47.8586L33.5655 48.0995C33.3656 48.1531 33.0991 48.2735 32.806 48.4609C32.3263 48.7687 32.0732 49.1434 31.9932 49.2639C31.6735 49.7457 31.5935 50.2275 31.5536 50.4951C31.5935 50.5754 31.6202 50.6423 31.6335 50.7093C31.9533 51.887 31.3537 53.2119 30.2345 53.6937C30.048 53.7606 29.8614 53.8142 29.6749 53.8677C29.3152 53.9346 28.9821 53.9881 28.649 54.0417C28.649 54.0417 28.5823 54.0417 28.5557 54.0551C27.7563 54.1889 27.0101 53.6268 26.8769 52.8238L26.5172 50.5219C26.3173 49.2772 26.2907 49.13 26.264 48.9159C26.1308 47.5107 26.264 46.3196 26.4905 45.3694C27.5431 41.0466 30.7675 38.3566 33.2324 36.8576C33.2857 36.8175 33.3256 36.8041 33.3656 36.7773C34.7379 35.9877 36.057 35.3989 36.2169 35.3052L37.7491 36.068C37.7491 36.068 37.8424 36.1216 37.8824 36.1483C38.9083 36.7639 41.3999 38.5171 42.6923 41.796C42.7322 41.8897 42.7855 42.0236 42.8521 42.2109C42.9987 42.6124 43.1986 43.228 43.3451 44.0043V44.031Z" fill="#EF4136"/>
<path d="M76.4438 3.51999L77.5364 10.4659L51.6616 14.5879C50.7822 12.2057 49.9028 9.83687 49.0234 7.45466C55.8186 5.08583 62.6004 2.717 69.3955 0.348173C69.7953 0.200957 71.4874 -0.361138 73.406 0.428472C75.5245 1.31176 76.2973 3.1988 76.4438 3.53338V3.51999Z" fill="#EF4136"/>
<path d="M54.6201 7.50821C53.6342 9.86365 52.6482 12.2191 51.6622 14.5745L25.7874 18.6966L24.6949 11.7507C24.3484 9.56922 25.8274 7.53498 27.9992 7.18701L54.6201 7.50821Z" fill="#EF4136"/>
<path d="M81.1449 13.4773L23.293 22.6849C24.1457 21.3332 24.9984 19.9681 25.8511 18.6164C43.0921 15.8729 60.3465 13.1293 77.5875 10.3857C78.7733 11.4162 79.9591 12.4468 81.1449 13.4773Z" fill="#EF4136"/>
<path d="M84.8366 19.205L20.5092 29.4432C18.8704 29.7109 17.3248 28.5733 17.0584 26.9271L16.7786 25.1606C16.6587 24.3709 17.1916 23.6349 17.9644 23.5144L85.4095 12.7811C86.1956 12.6606 86.9284 13.196 87.0483 13.9722L87.3281 15.7388C87.5946 17.3849 86.4621 18.9374 84.8232 19.205H84.8366Z" fill="#EF4136"/>
<path d="M63.2815 6.45099L63.1882 7.74916L33.6094 7.25399L51.9962 6.39746L63.2815 6.45099Z" fill="#EF4136"/>
<path d="M76.4438 3.51999L77.5364 10.4659L51.6616 14.5879C50.7822 12.2057 49.9028 9.83687 49.0234 7.45466C55.8186 5.08583 62.6004 2.717 69.3955 0.348173C69.7953 0.200957 71.4874 -0.361138 73.406 0.428472C75.5245 1.31176 76.2973 3.1988 76.4438 3.53338V3.51999Z" fill="#F15A29"/>
<path d="M54.6201 7.50821C53.6342 9.86365 52.6482 12.2191 51.6622 14.5745L25.7874 18.6966L24.6949 11.7507C24.3484 9.56922 25.8274 7.53498 27.9992 7.18701L54.6201 7.50821Z" fill="#F15A29"/>
<path d="M81.1449 13.4773L23.293 22.6849C24.1457 21.3332 24.9984 19.9681 25.8511 18.6164C43.0921 15.8729 60.3465 13.1293 77.5875 10.3857C78.7733 11.4162 79.9591 12.4468 81.1449 13.4773Z" fill="#EF4136"/>
<path d="M84.8366 19.205L20.5092 29.4432C18.8704 29.7109 17.3248 28.5733 17.0584 26.9271L16.7786 25.1606C16.6587 24.3709 17.1916 23.6349 17.9644 23.5144L85.4095 12.7811C86.1956 12.6606 86.9284 13.196 87.0483 13.9722L87.3281 15.7388C87.5946 17.3849 86.4621 18.9374 84.8232 19.205H84.8366Z" fill="#F15A29"/>
<path d="M63.2815 6.45099L63.1882 7.74916L33.6094 7.25399L51.9962 6.39746L63.2815 6.45099Z" fill="#EF4136"/>
<path d="M58.0539 43.7367L45.8359 45.6773L46.3556 44.446L57.5742 40.6987L58.0539 43.7367Z" fill="#FBB040"/>
<path d="M38.0797 52.3285C35.4682 52.7033 32.3104 53.2654 29.5524 53.6802H29.4725C28.1134 53.8408 26.8743 52.8772 26.6745 51.5122C26.4746 50.1471 27.4473 48.8355 28.8329 48.6348L33.443 47.9656L35.0019 47.7515L40.0916 47.0288C40.2781 47.0288 40.6112 46.9619 40.891 46.8682C41.0242 46.828 41.2907 46.7344 41.7037 46.4399C41.9302 46.2927 43.0761 45.4897 43.2759 44.1782C43.2759 44.1514 43.2759 44.1112 43.2893 44.0845C43.5557 45.5834 43.6357 47.6444 42.783 49.6653C42.6897 49.8794 42.1034 50.9501 41.7704 51.2177C41.5039 51.5255 41.0242 52.4088 40.6112 52.3151H38.0797V52.3285Z" fill="#F15A29"/>
<path d="M40.1472 47.1091L35.0575 47.8318C34.4268 47.9211 33.9072 47.9924 33.4986 48.046C33.2987 48.0995 33.0189 48.2066 32.7258 48.3939C32.2462 48.6884 31.9797 49.0631 31.8997 49.1835C31.58 49.6653 31.4867 50.1337 31.4334 50.4148C31.4734 50.4951 31.5 50.562 31.5 50.6423C31.8065 51.8334 31.1803 53.1316 30.0477 53.6C29.8612 53.6669 29.6747 53.7204 29.4881 53.7606C29.1284 53.8275 28.7953 53.8677 28.4622 53.9212C28.4622 53.9212 28.3956 53.9212 28.3689 53.9212C27.5695 54.0283 26.8234 53.4662 26.7168 52.6498L26.397 50.3479C26.2238 49.1032 26.1838 48.956 26.1705 48.7419C26.0639 47.3367 26.2238 46.1456 26.4503 45.1953C27.5828 40.886 30.8472 38.2628 33.3387 36.8041C33.392 36.7639 33.4453 36.7505 33.472 36.7372C34.8576 35.9743 36.3499 35.1713 36.5231 35.0776L37.8821 36.0948C37.8821 36.0948 37.9754 36.1483 38.0154 36.1884C39.028 36.8308 41.4929 38.6108 42.732 41.9165C42.772 42.0101 42.8119 42.144 42.8786 42.3313C43.0118 42.7328 43.2117 43.3485 43.3449 44.1247C43.3982 44.8741 43.7579 47.0824 43.1184 48.8356C42.7187 49.9062 43.4115 46.2259 40.1472 47.0958V47.1091Z" fill="#EF4136"/>
<path d="M22.1494 79.3225L19.991 80.1924C19.1782 80.527 18.2456 80.1255 17.9258 79.3092C16.1271 74.8525 14.3417 70.3959 12.543 65.9393C14.0885 64.8553 15.6208 63.7579 17.1663 62.6738C19.1249 67.5319 21.0702 72.39 23.0288 77.2481C23.3619 78.0645 22.9622 79.0013 22.1494 79.3225Z" fill="#F7941D"/>
<path d="M17.2154 62.8597L12.1094 64.9204L14.1609 70.0492L19.2669 67.9885L17.2154 62.8597Z" fill="#F15A29"/>
<path d="M8.41961 45.8646C2.91688 48.0996 0.265439 54.363 2.49051 59.8902C4.71559 65.4175 10.9645 68.0807 16.4539 65.8591C21.9433 63.6375 24.608 57.334 22.383 51.8201C20.1579 46.3063 13.909 43.643 8.40628 45.878L8.41961 45.8646ZM15.3213 63.0353C11.3775 64.6279 6.88737 62.7141 5.28851 58.7527C3.68966 54.7912 5.60828 50.2811 9.53881 48.6885C13.4693 47.0959 17.9861 48.9963 19.5716 52.9577C21.1572 56.9191 19.2652 61.4427 15.308 63.0487L15.3213 63.0353Z" fill="#A96053"/>
<path d="M6.71648 46.5604C1.21375 48.7954 -1.43769 55.0588 0.78739 60.586C3.01247 66.1133 9.26133 68.7765 14.7507 66.5549C20.2401 64.3333 22.9049 58.0298 20.6798 52.5159C18.4548 47.0021 12.2059 44.3388 6.70316 46.5738L6.71648 46.5604ZM13.6182 63.7311C9.67437 65.3237 5.18425 63.4099 3.58539 59.4484C1.98653 55.487 3.90516 50.9769 7.83568 49.3843C11.7662 47.7917 16.283 49.6921 17.8685 53.6535C19.454 57.615 17.5621 62.1385 13.6049 63.7445L13.6182 63.7311Z" fill="#C49A6C"/>
<path opacity="0.5" d="M10.7379 64.2932C14.9985 64.2932 18.4524 60.8239 18.4524 56.5443C18.4524 52.2647 14.9985 48.7954 10.7379 48.7954C6.47733 48.7954 3.02344 52.2647 3.02344 56.5443C3.02344 60.8239 6.47733 64.2932 10.7379 64.2932Z" fill="#C49A6C"/>
<path d="M16.589 66.7557C12.1655 69.0175 11.1663 72.8451 11.1663 72.8451C8.92786 77.9976 11.113 82.9628 11.7259 84.1672C13.1115 86.8439 15.8029 88.4633 19.8001 91.4343L26.4353 83.5918C20.906 79.9917 19.0806 78.185 18.3878 76.4987C18.028 75.6288 17.9747 74.7722 17.9747 74.7722C17.9614 74.5715 17.6683 71.1454 19.7868 69.2985C20.4263 68.7364 21.2391 68.4554 21.3323 67.639C21.4123 66.9163 21.3057 66.2204 20.373 65.7921C19.6269 65.4575 18.7209 65.6583 16.6024 66.7423L16.589 66.7557Z" fill="#EF4136"/>
<path d="M30.3276 84.8499C27.4363 84.8499 25.3312 83.8194 24.5051 83.4179C23.4525 82.9093 21.4006 81.6915 19.562 79.4163C18.7092 78.359 17.9897 77.1947 17.4435 75.9501C17.2969 75.6155 17.4435 75.214 17.7766 75.0668C18.1097 74.9196 18.5094 75.0668 18.6559 75.4014C19.1622 76.5389 19.8018 77.6096 20.5879 78.5732C22.3333 80.7279 24.3052 81.8387 25.078 82.2134C25.8508 82.5881 27.8893 83.6053 30.6873 83.4982C31.5934 83.4714 32.486 83.3242 33.3521 83.0699C33.7118 82.9629 34.0716 83.177 34.1782 83.525C34.2848 83.8863 34.0716 84.2477 33.7252 84.3547C32.7525 84.6358 31.7399 84.7964 30.7273 84.8365C30.5807 84.8365 30.4475 84.8365 30.3009 84.8365L30.3276 84.8499Z" fill="#BE1E2D"/>
<path d="M77.1703 43.1608C74.2258 44.9943 71.2945 46.8278 68.35 48.6613L66.6445 58.15C77.69 62.4327 87.1232 70.4091 98.4085 83.8859C99.0747 84.6756 99.3678 85.7061 99.7942 86.6161C100.687 85.5722 101.886 83.9529 102.832 81.758C105.657 75.227 103.911 68.9369 102.885 65.2833C101.979 62.0579 99.8608 54.4295 92.586 49.0628C88.9086 46.346 85.2312 45.1817 82.8729 44.6464C80.9676 44.1512 79.0623 43.656 77.157 43.1475L77.1703 43.1608Z" fill="#EF4136"/>
<path d="M99.5311 86.7503C99.2913 86.7503 99.0515 86.6165 98.9316 86.3756C98.372 85.238 97.3727 83.7793 96.973 83.2038C95.3475 80.8617 94.1217 79.4833 92.2563 77.3955L92.1231 77.2483C91.87 76.9672 90.6575 75.7092 90.2844 75.388C90.0046 75.1471 89.978 74.7188 90.2178 74.4378C90.4576 74.1567 90.884 74.13 91.1638 74.3709C91.5902 74.7322 92.8293 76.0304 93.1224 76.3516L93.2556 76.4988C95.1476 78.6134 96.4001 80.0186 98.0789 82.441C98.4919 83.0432 99.5311 84.5689 100.131 85.7734C100.291 86.1079 100.157 86.5095 99.8376 86.6701C99.7443 86.7236 99.6377 86.737 99.5445 86.737L99.5311 86.7503Z" fill="#BE1E2D"/>
</g>
<defs>
<clipPath id="clip0_1301_4853">
<rect width="104.379" height="96.426" fill="white"/>
</clipPath>
</defs>
</svg>
