<svg width="185" height="202" viewBox="0 0 185 202" fill="none" xmlns="http://www.w3.org/2000/svg">
<g filter="url(#filter0_f_993_2353)">
<ellipse cx="68.6471" cy="72.3402" rx="14.4948" ry="14.4945" fill="#EB5E55"/>
<ellipse cx="109.827" cy="136.417" rx="14.4948" ry="14.4945" fill="#EB5E55"/>
<ellipse cx="124.526" cy="79.4842" rx="14.4948" ry="14.4945" fill="#FFC758"/>
<ellipse cx="136.506" cy="100.912" rx="14.4948" ry="14.4945" fill="#EB5E55"/>
<ellipse cx="114.237" cy="65.4056" rx="14.4948" ry="14.4945" fill="#EB5E55"/>
<ellipse cx="65.4948" cy="100.912" rx="14.4948" ry="14.4945" fill="#FFC758"/>
<ellipse cx="65.4948" cy="100.912" rx="14.4948" ry="14.4945" fill="#FFC758"/>
<ellipse cx="95.1237" cy="72.3402" rx="14.4948" ry="14.4945" fill="#FFC758"/>
<ellipse cx="95.1237" cy="72.3402" rx="14.4948" ry="14.4945" fill="#FFC758"/>
<ellipse cx="124.526" cy="122.34" rx="14.4948" ry="14.4945" fill="#FFC758"/>
<ellipse cx="124.526" cy="122.34" rx="14.4948" ry="14.4945" fill="#FFC758"/>
<ellipse cx="93.6469" cy="129.481" rx="13.0453" ry="13.045" fill="#FFC758"/>
<ellipse cx="93.6469" cy="129.481" rx="13.0453" ry="13.045" fill="#FFC758"/>
<ellipse cx="68.6471" cy="128.054" rx="14.4948" ry="14.4945" fill="#EB5E55"/>
</g>
<g filter="url(#filter1_d_993_2353)">
<ellipse cx="101.445" cy="101.355" rx="44.4451" ry="44.4443" fill="url(#paint0_linear_993_2353)"/>
</g>
<g clip-path="url(#clip0_993_2353)">
<path d="M91.2379 113.277V113.616C91.2379 114.073 90.8725 114.438 90.4158 114.438H87.4145C86.9708 114.438 86.6055 114.073 86.6055 113.616V113.277C86.6055 112.82 86.9708 112.454 87.4145 112.454H88.341C87.6233 112.219 87.1274 111.54 87.1274 110.757C87.1274 109.778 87.9365 108.969 88.9282 108.969C89.9199 108.969 90.7159 109.778 90.7159 110.757C90.7159 111.54 90.2201 112.206 89.5154 112.454H90.4289C90.8856 112.454 91.251 112.82 91.251 113.277H91.2379Z" fill="white"/>
<path d="M111.933 113.277V113.616C111.933 114.073 111.568 114.438 111.111 114.438H108.11C107.666 114.438 107.301 114.073 107.301 113.616V113.277C107.301 112.82 107.666 112.454 108.11 112.454H109.036C108.319 112.219 107.823 111.54 107.823 110.757C107.823 109.778 108.632 108.969 109.624 108.969C110.615 108.969 111.411 109.778 111.411 110.757C111.411 111.54 110.915 112.206 110.211 112.454H111.124C111.581 112.454 111.946 112.82 111.946 113.277H111.933Z" fill="white"/>
<path d="M131.77 90.5495C134.223 83.0435 123.718 83.6439 123.718 83.6439C123.744 83.5526 124.292 82.7302 124.319 82.6257C124.423 82.0644 124.971 78.9967 122.818 76.7383C122.035 75.929 121.226 75.5374 121.03 75.459C119.425 74.7149 116.672 74.3755 112.3 76.7905C104.327 81.2289 99.3686 82.208 95.6888 82.0513C92.3743 81.9077 91.1477 80.6546 85.5235 80.4196C82.3004 80.289 80.8258 80.6023 79.547 81.2289C76.1281 82.926 75.1886 86.3722 75.1103 86.6725C74.5622 88.7872 75.0189 91.0587 76.2456 93.0429C76.2847 93.1082 76.3239 93.1734 76.3761 93.2387C76.4544 93.3431 76.5326 93.4476 76.6109 93.565C77.5244 94.6355 79.0381 95.1315 80.3169 95.1315C81.8697 95.1315 83.527 94.5833 85.5366 93.4084C86.0063 93.1343 86.6066 93.304 86.8676 93.7609C87.1285 94.2177 86.985 94.8313 86.5152 95.1054C84.1925 96.45 82.2221 97.0896 80.3169 97.0896H80.2908C80.1473 97.0896 80.0168 97.0766 79.8863 97.0635C79.6905 97.2071 79.5079 97.3507 79.3382 97.4943C75.2799 101.058 73.7401 105.692 74.0403 110.287C74.5492 109.008 75.2669 107.572 76.2195 105.979C77.0024 104.674 80.0037 100.288 86.0063 98.4864C89.4904 97.4421 92.57 98.2254 94.0837 98.7867C95.9237 99.4524 97.1764 100.719 98.0898 101.646C98.5335 102.089 99.1337 102.703 99.3556 102.703C99.5774 102.703 100.178 102.089 100.608 101.646C101.535 100.719 102.788 99.4524 104.614 98.7867C106.141 98.2254 109.221 97.4421 112.705 98.4864C118.707 100.288 121.709 104.674 122.479 105.979C123.418 107.572 124.149 108.995 124.658 110.274C124.814 107.885 124.475 105.483 123.523 103.225C123.536 103.225 123.562 103.225 123.575 103.225C122.648 101.202 121.069 99.4655 119.125 98.4081C118.655 98.147 118.473 97.5596 118.734 97.0766C118.995 96.6066 119.582 96.4239 120.065 96.685C122.648 98.0818 124.684 100.471 125.715 103.225C126.837 103.108 127.972 102.794 129.003 102.142C129.564 101.776 130.217 101.241 130.817 100.445C130.948 100.131 131.704 98.1079 130.504 96.0845C129.525 94.4527 127.607 93.4345 125.519 93.4084C130.569 93.7217 131.77 90.5365 131.77 90.5365V90.5495Z" fill="white"/>
<path d="M93.6287 100.014C92.2585 99.5049 89.4791 98.813 86.3734 99.7399C80.8144 101.398 78.048 105.445 77.3303 106.645C75.3599 109.961 74.6814 112.076 74.5117 113.421C75.3338 116.775 77.0824 119.974 79.4965 122.571C85.9819 129.568 96.2777 130.104 99.3442 130.091C102.424 130.104 112.693 129.568 119.192 122.571C121.606 119.974 123.368 116.762 124.19 113.394C124.02 112.05 123.329 109.935 121.358 106.645C120.653 105.445 117.887 101.398 112.328 99.7399C109.209 98.813 106.443 99.5049 105.073 100.014C103.507 100.575 102.424 101.685 101.55 102.573C100.74 103.369 100.127 103.969 99.3442 104.009C98.5874 103.956 97.948 103.369 97.152 102.573C96.2777 101.685 95.1815 100.575 93.6287 100.014ZM92.5978 114.661C92.5978 115.026 92.5456 115.379 92.4412 115.718H85.2642C85.199 115.509 85.1598 115.3 85.1337 115.078C85.1207 114.948 85.1076 114.804 85.1076 114.661V108.812C85.1076 106.737 86.817 105.497 88.8919 105.497C89.1398 105.497 89.3747 105.497 89.6096 105.497C88.9963 104.557 88.1611 104.178 86.9345 104.217C83.7766 104.335 83.2285 107.598 83.2024 107.742C83.1241 108.277 82.6152 108.643 82.0933 108.564C81.5583 108.486 81.1929 107.99 81.2712 107.455C81.5322 105.719 83.0328 102.416 86.8692 102.272C91.3451 102.064 92.2063 106.306 92.5195 107.886C92.5195 107.938 92.5195 107.99 92.5195 108.042C92.5717 108.29 92.5978 108.551 92.5978 108.812V114.661ZM105.96 108.852C105.96 108.591 105.986 108.329 106.038 108.081C106.038 108.029 106.038 107.977 106.038 107.925C106.365 106.345 107.213 102.116 111.689 102.312C115.525 102.455 117.026 105.771 117.274 107.494C117.352 108.029 116.987 108.525 116.452 108.604C115.917 108.669 115.421 108.316 115.342 107.781C115.316 107.625 114.755 104.387 111.61 104.27C110.384 104.217 109.549 104.609 108.935 105.549C109.17 105.549 109.405 105.549 109.653 105.549C111.728 105.549 113.437 106.789 113.437 108.865V114.713C113.437 114.857 113.424 115 113.411 115.131C113.385 115.353 113.346 115.561 113.281 115.77H106.104C105.999 115.431 105.947 115.078 105.947 114.713V108.865L105.96 108.852ZM99.7618 114.465C101.654 115.052 103.115 115.509 104.929 119.008C105.099 119.321 105.034 119.687 104.773 119.961C104.133 120.626 102.724 121.971 99.9053 123.211C99.5661 123.355 99.1354 123.355 98.7962 123.211C95.9645 121.971 94.5682 120.626 93.9288 119.961C93.6678 119.7 93.6026 119.334 93.7722 119.008C95.5861 115.496 97.0476 115.052 98.9397 114.465C99.2007 114.387 99.5008 114.387 99.7618 114.465Z" fill="white"/>
</g>
<defs>
<filter id="filter0_f_993_2353" x="0.438118" y="0.349251" width="201.124" height="201.124" filterUnits="userSpaceOnUse" color-interpolation-filters="sRGB">
<feFlood flood-opacity="0" result="BackgroundImageFix"/>
<feBlend mode="normal" in="SourceGraphic" in2="BackgroundImageFix" result="shape"/>
<feGaussianBlur stdDeviation="25.2809" result="effect1_foregroundBlur_993_2353"/>
</filter>
<filter id="filter1_d_993_2353" x="36.4007" y="36.3118" width="130.089" height="130.087" filterUnits="userSpaceOnUse" color-interpolation-filters="sRGB">
<feFlood flood-opacity="0" result="BackgroundImageFix"/>
<feColorMatrix in="SourceAlpha" type="matrix" values="0 0 0 0 0 0 0 0 0 0 0 0 0 0 0 0 0 0 127 0" result="hardAlpha"/>
<feMorphology radius="1.87266" operator="dilate" in="SourceAlpha" result="effect1_dropShadow_993_2353"/>
<feOffset/>
<feGaussianBlur stdDeviation="9.36331"/>
<feComposite in2="hardAlpha" operator="out"/>
<feColorMatrix type="matrix" values="0 0 0 0 0 0 0 0 0 0 0 0 0 0 0 0 0 0 0.13 0"/>
<feBlend mode="normal" in2="BackgroundImageFix" result="effect1_dropShadow_993_2353"/>
<feBlend mode="normal" in="SourceGraphic" in2="effect1_dropShadow_993_2353" result="shape"/>
</filter>
<linearGradient id="paint0_linear_993_2353" x1="130.334" y1="132.466" x2="69.2235" y2="66.9101" gradientUnits="userSpaceOnUse">
<stop stop-color="#FFC757"/>
<stop offset="1" stop-color="#EB5E55"/>
</linearGradient>
<clipPath id="clip0_993_2353">
<rect width="58.1469" height="55.1796" fill="white" transform="translate(74 74.9106)"/>
</clipPath>
</defs>
</svg>
