<svg width="89" height="88" viewBox="0 0 89 88" fill="none" xmlns="http://www.w3.org/2000/svg">
<g clip-path="url(#clip0_1302_6131)">
<path d="M3.49531 19.1429C4.10869 22.1923 11.8959 25.082 14.0294 26.8264C14.0561 26.9596 15.5762 26.8131 17.9231 26.5335C25.9237 25.548 43.4717 22.8582 43.5517 23.3109C44.1651 27.1327 47.312 29.9158 51.0056 30.2221C51.4456 30.2753 51.8856 30.2753 52.3523 30.2354C52.5657 30.2088 52.7791 30.1954 52.9924 30.1555C53.9258 30.0357 54.7525 29.7826 55.4993 29.4098C55.5259 29.4098 55.5659 29.3831 55.5926 29.3698C62.0998 26.1206 60.9797 14.602 52.739 13.8696L6.69555 15.401C4.7354 15.3744 3.14862 17.1987 3.48197 19.1429H3.49531Z" fill="#1C75BC"/>
<path d="M5.80032 43.7383C6.10701 45.6292 7.88048 46.9209 9.78729 46.6279C10.4007 46.5347 10.974 46.2684 11.4274 45.8955L11.6274 45.7091C13.6009 43.9779 15.5744 42.2468 17.5479 40.5157C25.4685 33.5779 33.3891 26.6268 41.2963 19.689C31.4689 20.8342 21.6549 21.9794 11.8274 23.1113L6.16035 41.5411C5.78698 42.7262 5.66698 42.9526 5.78698 43.7249L5.80032 43.7383Z" fill="#1C75BC"/>
<path d="M0.040459 34.0572C0.32048 35.9081 2.25396 37.0933 4.01409 36.5074C11.5213 35.1358 33.9097 27.2392 41.4169 24.6292L23.6823 16.1733H17.5218C14.0949 18.7168 4.25411 28.2113 1.01387 31.3007C0.267143 31.9798 -0.132887 32.9919 0.0271247 34.0572H0.040459Z" fill="#1C75BC"/>
<path d="M76.9646 34.523C78.2447 33.6841 79.4981 34.563 80.5115 35.7082C101.433 59.358 79.1114 105.233 37.2816 74.8315C32.4012 71.2761 43.7087 54.4442 54.5895 55.3098C69.564 56.5083 76.0978 48.6916 76.9646 34.5097V34.523Z" fill="#EF4136"/>
<path d="M60.789 73.9659C60.5223 77.9741 59.0955 81.2899 57.1887 84.286C56.3753 85.5511 55.4819 86.7629 54.5485 87.9347H9.01172C9.35841 85.6576 9.71844 83.3938 10.0785 81.1167C10.1051 80.9303 10.1318 80.7572 10.1585 80.5708C10.4252 78.9196 10.6785 77.2683 10.9319 75.6171C11.1452 74.2322 11.3586 72.8606 11.5719 71.489C11.7453 70.3971 11.9186 69.3052 12.0786 68.2132C13.052 61.9945 14.0254 55.7758 14.9988 49.5837C16.999 49.3573 18.9991 49.1975 20.986 49.1309C21.146 49.1176 21.3193 49.1043 21.4793 49.1043C21.5327 49.091 21.5993 49.091 21.6527 49.1043C22.4127 49.0643 23.1728 49.051 23.9195 49.051C34.3736 49.0244 44.1477 51.1284 51.0282 55.6426C52.6684 56.7079 54.1351 57.9197 55.4019 59.2647C55.8286 59.7041 56.2153 60.1569 56.5887 60.6229C56.602 60.6362 56.6153 60.6629 56.6153 60.6629H56.6287C57.7354 62.0478 58.6555 63.5658 59.3622 65.2171C60.5623 68.3597 60.949 71.2627 60.7756 73.9526L60.789 73.9659Z" fill="#FFDF82"/>
<path d="M37.6707 75.1244C37.084 79.6387 35.1372 83.9665 32.3903 87.9347H4.21484C4.40152 85.3114 4.69488 82.6482 5.06824 79.9583C5.21492 78.7864 5.4016 77.6279 5.60162 76.4561C7.49509 65.2704 10.9487 54.311 15.4424 47.0137C15.6824 47.0669 16.3891 47.2401 17.4158 47.5463L17.5092 47.573C18.3226 47.8393 19.336 48.1855 20.4694 48.6649L20.5361 48.6915C20.8428 48.8114 21.1628 48.9579 21.4828 49.1043C22.8429 49.7169 24.323 50.4892 25.8165 51.448C29.8168 53.9914 33.9371 57.8798 36.0973 63.6724C36.6573 64.9907 37.084 66.309 37.364 67.614C37.9374 70.1574 38.0041 72.6609 37.6707 75.1244Z" fill="#EF4136"/>
<path d="M22.9469 66.4956C21.7468 73.0472 11.9727 74.5919 8.8125 68.7327L22.9469 66.4956Z" fill="#F15A29"/>
<path d="M32.2907 72.2349C31.0906 78.7865 21.3165 80.3312 18.1562 74.472L32.2907 72.2349Z" fill="#F15A29"/>
<path d="M5.0625 79.9585C9.27615 82.3021 15.1566 79.4524 16.0367 74.8184L5.60921 76.4696C5.39586 77.6414 5.22251 78.7999 5.07583 79.9718L5.0625 79.9585Z" fill="#F15A29"/>
<path d="M15.4648 46.8274L33.7729 53.5521L56.6413 60.6631C56.2813 60.3168 48.254 51.9808 53.6944 46.2148C53.7344 46.1616 53.7877 46.1083 53.8411 46.055L52.3476 30.2219L52.241 29.0368L52.361 30.2219L53.9478 45.9219L55.6546 29.4363C55.6546 29.4363 55.5479 29.4096 55.5079 29.4096C55.5345 29.4096 55.5746 29.383 55.6012 29.3697L43.2269 16.04L18.2517 23.8567L17.9317 26.52L15.4782 46.8274H15.4648Z" fill="#FFDF82"/>
<path d="M54.8992 29.756L55.5926 29.3698L45.2585 15.1479C36.8045 18.8765 23.2701 14.6819 14.8028 18.4104C14.0028 25.8543 16.2696 39.5834 15.4429 47.0139C16.8163 47.4667 18.2698 47.9993 19.7632 48.6119C21.9767 49.5174 24.0035 50.4895 25.8037 51.4483C23.4168 49.038 22.7901 46.8541 22.5901 45.5624C21.6433 39.2505 27.0571 28.9703 37.4045 25.0952L54.8725 29.7693L54.8992 29.756Z" fill="#1C75BC"/>
<path d="M53.6451 46.2683C53.1517 46.3615 52.7917 46.4148 52.205 46.508L35.7371 49.118C32.8035 49.584 30.11 47.2137 29.6433 44.2708L28.6832 38.1986C28.4032 37.2265 27.6431 34.0972 29.1499 30.7681C29.1499 30.7681 30.47 27.8784 33.5903 26.0008C38.324 23.1511 45.6712 24.4029 52.3384 28.9038L53.6585 46.2683H53.6451Z" fill="#FBB040"/>
<path d="M33.7652 34.9093L34.6053 40.1692C34.8187 41.5142 36.0721 42.4197 37.4188 42.2066L43.6593 41.2212C44.126 41.1546 44.4327 40.7152 44.366 40.2491L43.3126 33.5776C42.9526 31.3005 41.0858 29.4363 38.779 29.343C35.632 29.2099 33.3119 31.953 33.7786 34.8959L33.7652 34.9093Z" fill="white"/>
<mask id="mask0_1302_6131" style="mask-type:luminance" maskUnits="userSpaceOnUse" x="33" y="29" width="12" height="14">
<path d="M33.7652 34.9093L34.6053 40.1692C34.8187 41.5142 36.0721 42.4197 37.4188 42.2066L43.6593 41.2212C44.126 41.1546 44.4327 40.7152 44.366 40.2491L43.3126 33.5776C42.9526 31.3005 41.0858 29.4363 38.779 29.343C35.632 29.2099 33.3119 31.953 33.7786 34.8959L33.7652 34.9093Z" fill="white"/>
</mask>
<g mask="url(#mask0_1302_6131)">
<path d="M35.1758 41.5274C36.1892 42.7658 37.9227 43.3517 39.6161 42.7658C40.7495 42.3663 41.5629 41.4875 41.963 40.4088C41.0296 39.5033 39.6961 39.0373 38.3094 39.2503C36.9226 39.4634 35.7625 40.3556 35.1758 41.5274Z" fill="white"/>
<path d="M38.3112 39.2503C36.9111 39.4767 35.7643 40.3556 35.1776 41.5274C34.7376 40.9948 34.4309 40.3556 34.3242 39.6232L33.6708 35.4818C33.3642 33.5243 34.3909 31.5002 36.271 30.861C38.6979 30.0354 41.1647 31.6201 41.5514 34.017L42.2048 38.1451C42.3248 38.9307 42.2448 39.7031 41.9781 40.4088C41.0447 39.5033 39.7113 39.0373 38.3245 39.2503H38.3112Z" fill="#3C2415"/>
<path d="M37.9084 38.2648C38.9689 38.2648 39.8286 37.4063 39.8286 36.3472C39.8286 35.2882 38.9689 34.4297 37.9084 34.4297C36.848 34.4297 35.9883 35.2882 35.9883 36.3472C35.9883 37.4063 36.848 38.2648 37.9084 38.2648Z" fill="white"/>
</g>
<path d="M38.8487 41.9806C42.0227 41.9806 44.5958 39.411 44.5958 36.2413C44.5958 33.0715 42.0227 30.502 38.8487 30.502C35.6746 30.502 33.1016 33.0715 33.1016 36.2413C33.1016 39.411 35.6746 41.9806 38.8487 41.9806Z" fill="white"/>
<path d="M38.8491 43.312C35.4355 43.312 32.4086 40.8219 31.8619 37.3463C31.5685 35.482 32.0086 33.6177 33.1286 32.0864C34.2354 30.555 35.8755 29.5563 37.7423 29.2633C39.6091 28.9703 41.4759 29.4231 43.0094 30.5284C44.5428 31.6336 45.5429 33.2715 45.8363 35.1358C46.1296 37.0001 45.6763 38.8644 44.5695 40.3958C43.4628 41.9271 41.8226 42.9259 39.9558 43.2188C39.5825 43.2721 39.2091 43.312 38.8491 43.312ZM38.8624 31.8467C38.6357 31.8467 38.3957 31.86 38.169 31.8999C37.0089 32.0864 35.9822 32.7122 35.2888 33.6577C34.5954 34.6032 34.3154 35.775 34.5021 36.9335C34.8754 39.3305 37.1423 40.9684 39.5558 40.5955C40.7159 40.4091 41.7426 39.7832 42.436 38.8377C43.1294 37.8923 43.4094 36.7205 43.2227 35.5619C43.0361 34.4034 42.4093 33.3781 41.4626 32.6856C40.7025 32.1263 39.7958 31.8467 38.8757 31.8467H38.8624Z" fill="#3C2415"/>
<path d="M43.4569 33.2711C43.2035 33.2711 42.9502 33.2046 42.7368 33.0581C42.1235 32.6586 41.9368 31.833 42.3502 31.2204C44.5503 27.8248 49.0307 27.2655 52.4843 27.8647C53.2043 27.9846 53.6977 28.677 53.5643 29.4094C53.4443 30.1285 52.7509 30.6212 52.0175 30.488C49.404 30.0353 46.0704 30.3682 44.577 32.6719C44.3236 33.0714 43.8969 33.2845 43.4569 33.2845V33.2711Z" fill="#3C2415"/>
<path d="M59.1672 47.067C59.2738 47.0404 59.3672 47.0138 59.3672 47.0138C60.1673 46.8673 60.754 46.2148 60.634 45.4158L59.6205 38.984L58.1404 38.4114C57.5671 38.5046 56.1403 38.7576 55.2469 38.9041L52.1266 39.4767C51.5799 39.7164 51.0999 39.8096 50.7799 39.8496C50.2065 39.9162 50.4599 38.7443 49.8731 38.2117C49.4198 37.7989 48.7264 37.7989 48.153 37.8788C48.0997 38.7976 48.073 41.4209 49.8465 43.7646C53.0334 47.9859 58.8472 47.107 59.1805 47.0404L59.1672 47.067Z" fill="#F15A29"/>
<path d="M50.7914 41.794C51.9249 43.7249 54.045 44.3907 55.6185 44.5904C56.2318 43.9379 56.8719 43.0191 57.0719 41.7541C57.3253 40.1827 56.7652 38.9443 56.5119 38.4916L57.5786 38.3184L56.6452 38.2252C56.2185 38.2918 55.1784 38.4782 54.4984 38.5715L52.2049 38.9976C51.8048 39.184 51.4448 39.2506 51.2048 39.2772C50.7914 39.3305 50.9648 38.4649 50.5381 38.0787C50.2047 37.7725 50.2314 37.5994 49.8047 37.6526C49.898 38.678 50.1781 40.7686 50.7648 41.7807L50.7914 41.794Z" fill="#FBB040"/>
<path d="M48.1364 38.2382C48.1364 38.2382 48.1764 38.3181 48.1764 38.3447C48.7498 39.5299 50.0832 39.956 50.3366 40.0359C50.6699 40.1424 50.91 40.1824 51.07 40.1957C51.07 40.1957 51.15 40.1957 51.23 40.1957C51.7367 40.209 56.5371 39.41 57.1238 39.3168L58.6839 39.0771C58.8839 39.0771 59.1906 39.0905 59.524 39.1837C60.0707 39.3301 60.4307 39.6098 60.5507 39.6897C61.0041 40.0492 61.2307 40.4754 61.3508 40.7284C61.3374 40.8083 61.3374 40.8748 61.3508 40.9547C61.4041 42.1665 62.3908 43.2318 63.6043 43.3517C63.8043 43.3517 63.991 43.3517 64.1776 43.3517C64.5377 43.3117 64.8844 43.2585 65.2044 43.2052C65.2044 43.2052 65.2711 43.2052 65.2977 43.1919C66.0978 43.0587 66.6445 42.2997 66.5112 41.5007L66.1511 39.2103C65.9511 37.9719 65.9511 37.8254 65.8978 37.6123C65.5911 36.2408 65.0844 35.1488 64.591 34.3232C62.2575 30.5547 58.3639 29.01 55.5503 28.3442C55.497 28.3309 55.4436 28.3175 55.4036 28.3175C53.8569 27.998 52.4167 27.8515 52.2301 27.8115L51.0033 29.01C51.0033 29.01 50.9366 29.0899 50.8966 29.1298C50.1099 30.0353 48.2831 32.4589 48.0564 35.9611C48.0564 36.0543 48.0431 36.2008 48.0297 36.4006C48.0164 36.8267 48.0164 37.4659 48.1098 38.2515L48.1364 38.2382Z" fill="#EF4136"/>
<path d="M53.9258 44.204C55.5792 44.9098 57.326 44.6035 57.5527 44.5636C58.1394 44.4571 58.6061 44.5636 58.3928 43.232L57.6861 38.3315H57.5794L56.5126 38.4913C56.766 38.9574 57.086 40.1825 56.846 41.7538C56.646 43.0189 55.6592 44.6435 53.9391 44.204H53.9258Z" fill="#EF4136"/>
<path d="M28.797 18.8366L8.35547 17.1187C7.11537 17.0122 6.622 15.4808 7.55541 14.6685L23.0766 1.29895C23.3699 1.04594 23.7433 0.92609 24.13 0.966039L43.9315 2.88359C45.1449 3.00344 45.6383 4.50818 44.7182 5.32048L29.8238 18.4903C29.5437 18.7433 29.157 18.8632 28.7837 18.8366H28.797Z" fill="#3C2415"/>
<path d="M30.277 23.3446C35.6 21.6174 39.4686 18.845 38.9179 17.1524C38.3672 15.4597 33.6056 15.4877 28.2826 17.2149C22.9597 18.9421 19.091 21.7145 19.6417 23.4071C20.1924 25.0998 24.954 25.0718 30.277 23.3446Z" fill="#3C2415"/>
<path d="M36.8534 10.8265L17.5898 17.0771L19.6501 23.4094L38.9136 17.1588L36.8534 10.8265Z" fill="#3C2415"/>
<path d="M37.2248 11.9653L37.6781 13.3635L30.5042 19.7154C30.3042 19.9019 30.0375 20.0483 29.7709 20.1416C29.5042 20.2348 29.2375 20.2614 28.9575 20.2348L18.3033 19.3426L17.8633 17.971L29.0775 18.9165C29.2775 18.9298 29.4775 18.8632 29.6242 18.73L37.2381 11.992L37.2248 11.9653Z" fill="#EF4136"/>
<path d="M19.1331 32.5789L17.8663 32.1661C18.0397 31.6468 18.213 31.1674 18.373 30.6747C18.5197 30.2619 18.653 29.8624 18.7997 29.4363C17.5596 25.6145 16.8396 21.6462 16.6796 17.6247C16.6262 16.4262 16.6129 15.0147 16.8796 13.6031C17.2529 11.6057 18.1197 9.86126 19.3998 8.55626C20.8399 7.09146 22.76 6.31911 24.6535 6.29248C25.3735 6.29248 25.8669 6.53217 26.1336 6.98493L24.9868 7.67738C24.9868 7.67738 24.9868 7.69069 25.0002 7.69069C25.0002 7.69069 24.9202 7.63743 24.6268 7.62411C23.1067 7.65075 21.5066 8.30325 20.3465 9.4884C19.2531 10.607 18.5064 12.1117 18.1863 13.8428C17.9463 15.1345 17.9596 16.4528 18.013 17.5714C18.173 21.5397 18.8931 25.4547 20.1331 29.2232L20.1998 29.4363L20.1331 29.6493C19.9731 30.1553 19.7998 30.6347 19.6264 31.1141C19.4531 31.5935 19.2931 32.0862 19.1197 32.5922L19.1331 32.5789Z" fill="#FBB040"/>
<path d="M20.0613 29.4608L18.875 30.0688L20.2267 32.6989L21.413 32.0908L20.0613 29.4608Z" fill="#FBB040"/>
<path d="M19.8165 28.8843L19.168 30.0479L21.9293 31.5827L22.5778 30.4192L19.8165 28.8843Z" fill="#FBB040"/>
<path d="M41.7618 36.5737C41.7618 36.5737 40.4817 35.1222 38.6416 35.4551C36.9081 35.7747 36.2147 37.346 36.1747 37.4525C35.5347 35.3619 36.8414 33.4044 38.2949 33.178C39.8417 32.9383 41.4151 34.5096 41.7618 36.5737Z" fill="#3C2415"/>
</g>
<defs>
<clipPath id="clip0_1302_6131">
<rect width="88.4734" height="86.9822" fill="white" transform="translate(0 0.952637)"/>
</clipPath>
</defs>
</svg>
