<svg width="101" height="92" viewBox="0 0 101 92" fill="none" xmlns="http://www.w3.org/2000/svg">
<g clip-path="url(#clip0_1302_5937)">
<path d="M4.86702 4.414C5.48236 8.13285 14.8096 11.9811 17.3195 14.18C17.3357 14.3417 19.1979 14.2285 22.0641 13.986C31.8124 13.129 53.2359 10.6067 53.3007 11.1726C53.8674 15.8454 57.5919 19.3541 62.0612 19.8715C62.5955 19.9523 63.1299 19.9685 63.6967 19.9523C63.9558 19.9362 64.2149 19.92 64.4739 19.8877C65.6237 19.7745 66.6276 19.5158 67.5344 19.0954C67.5668 19.0954 67.6154 19.063 67.6478 19.0469C75.6796 15.3765 74.8052 1.35807 64.8464 0.113065L8.9153 -0.000117807C6.53491 -0.1133 4.52697 2.03717 4.85083 4.414H4.86702Z" fill="#1C75BC"/>
<path d="M6.61818 34.3589C6.90966 36.6711 9.01476 38.3203 11.3304 38.0293C12.0915 37.9323 12.7878 37.6412 13.3545 37.2047L13.6136 36.9945C16.0912 34.9733 18.5525 32.9522 21.0301 30.9473C30.9403 22.8628 40.8343 14.7622 50.7445 6.67773C38.7777 7.64787 26.811 8.618 14.8281 9.58814L7.16875 31.7072C6.65057 33.1139 6.50483 33.405 6.63437 34.3428L6.61818 34.3589Z" fill="#1C75BC"/>
<path d="M0.0443155 22.3612C0.303406 24.6087 2.60283 26.1448 4.77271 25.498C13.938 24.156 41.4502 15.5056 50.664 12.676L29.4996 1.66501L22.0184 1.39014C17.7596 4.34905 5.40424 15.4409 1.33977 19.0628C0.416758 19.855 -0.133809 21.0677 0.0281224 22.3612H0.0443155Z" fill="#1C75BC"/>
<path d="M49.8018 31.3516C24.6377 66.7777 83.0625 105.405 96.6971 78.7912C97.361 77.4815 98.6565 76.1557 98.2031 75.0238C97.944 74.3932 99.1909 73.5686 98.9642 73.4554C94.5758 71.1918 77.0872 61.6845 66.416 49.0889C65.0072 47.4235 62.9668 44.7071 61.137 40.7457C57.364 37.6089 53.591 34.4722 49.8018 31.3516Z" fill="#EF4136"/>
<path d="M72.0844 73.3581C71.8739 75.4924 71.3881 77.4327 70.6918 79.2598C70.4813 79.9065 70.206 80.5209 69.9146 81.1353C69.364 82.2833 68.781 83.399 68.1009 84.4823C66.4168 87.1502 64.3765 89.5917 62.2876 91.9524H13.5625C10.6153 91.9524 8.41305 89.2683 8.96362 86.3902C9.38464 84.2236 9.78947 82.057 10.2105 79.8903C10.5344 78.1764 10.8744 76.4464 11.1983 74.7325C13.3196 63.7376 15.4085 52.7589 17.5298 41.8287C18.9872 41.7155 20.4284 41.6347 21.8857 41.5862H21.9991C23.1974 41.5377 24.3957 41.5215 25.594 41.5215C26.1445 41.5215 26.6951 41.5215 27.2457 41.5377C33.1885 41.6508 38.9371 42.3299 44.2323 43.5911C52.9604 45.6446 60.4578 49.2664 65.51 54.586C65.7205 54.7962 65.9311 55.0225 66.1254 55.2651C66.3683 55.5238 66.595 55.7825 66.8055 56.0573C67.0484 56.3484 67.2913 56.6394 67.4856 56.9305C67.5018 56.9628 67.518 56.979 67.5504 56.9951C67.5504 56.9951 67.5827 57.0275 67.5827 57.0598H67.5989C68.8782 58.7899 69.9308 60.6655 70.7242 62.7028C72.0359 66.551 72.3921 70.092 72.0682 73.3581H72.0844Z" fill="#FFDF82"/>
<path d="M18.2266 38.5142L40.1521 47.4556L67.5994 57.06C67.1784 56.6234 57.7864 46.1783 64.6361 39.4035C64.7009 39.355 64.7494 39.2742 64.8304 39.2095L63.6807 19.9361L63.5997 18.4971L63.6969 19.9361L64.9599 39.0478L66.3849 22.1189C64.8628 23.6873 65.721 18.9175 65.6724 18.9013C65.7048 18.9013 65.9153 19.2894 65.9477 19.257L53.2037 2.31201L22.5663 10.7684L22.0643 13.986L18.2266 38.5142Z" fill="#FFDF82"/>
<path d="M66.7909 19.4672L67.6491 19.0306L55.731 1.3418C45.3026 5.49721 29.0447 -0.161913 18.6325 4.00967C17.3533 12.9996 19.507 29.7506 18.1953 38.7405C20.0413 40.1634 21.8712 41.5701 23.7172 42.9929C25.6765 44.5613 27.6197 46.1459 29.5791 47.7143C28.0569 45.0302 26.7129 41.4246 26.9396 37.2853C27.4254 28.2469 35.1657 19.9037 46.4361 16.3951L66.8071 19.4833L66.7909 19.4672Z" fill="#1C75BC"/>
<path d="M92.8446 76.5435L55.8109 81.0869C55.6652 81.1031 54.6774 81.2486 53.8678 80.5534C52.8638 79.6964 53.0581 78.3706 53.0581 78.3059L55.0822 59.0002C55.2604 57.2539 56.7987 55.6694 58.499 55.4592L95.5327 50.9157C97.233 50.7055 98.4636 51.9505 98.2855 53.6968L96.2614 73.0025C96.0833 74.7487 94.5449 76.3333 92.8446 76.5435Z" fill="#DFCCB3"/>
<path d="M57.0752 82.2188L53.707 80.5534L54.2252 79.0659L56.4113 78.791L57.0752 82.2188Z" fill="#DFCCB3"/>
<path d="M99.6916 52.4841L96.6797 51.0127L97.1169 54.2303L99.3192 53.9716L99.6916 52.4841Z" fill="#DFCCB3"/>
<path d="M95.4521 77.853L58.4184 82.3965C56.7181 82.6067 55.4874 81.3617 55.6656 79.6155L57.6897 60.3098C57.8678 58.5635 59.4062 56.979 61.1065 56.7688L98.1402 52.2253C99.8404 52.0151 101.071 53.2601 100.893 55.0063L98.8689 74.312C98.6907 76.0583 97.1524 77.6428 95.4521 77.853Z" fill="#C49A6C"/>
<path d="M78.8861 70.1729C79.0318 70.1567 79.1614 70.092 79.2747 69.9627C79.3881 69.8495 79.4529 69.704 79.4691 69.5585C79.4852 69.4129 79.4529 69.2836 79.3557 69.1866C79.2585 69.0896 79.1452 69.0572 78.9995 69.0734C78.8537 69.0896 78.7242 69.1542 78.6108 69.2836C78.4975 69.4129 78.4327 69.5423 78.4165 69.6878C78.4003 69.8333 78.4327 69.9627 78.5299 70.0597C78.627 70.1567 78.7404 70.1891 78.8861 70.1729ZM78.6918 68.5398L79.4852 68.4428C79.5176 68.2003 79.55 68.0062 79.631 67.8607C79.7119 67.7152 79.8739 67.505 80.1492 67.2463C80.3597 67.0361 80.5216 66.8421 80.635 66.6481C80.7483 66.454 80.8293 66.26 80.8617 66.0175C80.9102 65.6132 80.7969 65.3222 80.5216 65.1282C80.2463 64.9341 79.9225 64.8856 79.5338 64.9342C79.1452 64.9827 78.7889 65.1282 78.5137 65.3869C78.2384 65.6456 78.0441 65.9205 77.8983 66.2438L78.5622 66.4379C78.6108 66.3085 78.708 66.1468 78.8537 65.9851C78.9995 65.8234 79.1938 65.7103 79.4529 65.6941C79.6796 65.6618 79.8415 65.6941 79.9387 65.8234C80.0358 65.9528 80.0844 66.066 80.0682 66.2277C80.052 66.3894 80.0034 66.5187 79.8901 66.6481C79.7767 66.7774 79.6796 66.9229 79.5338 67.0361C79.1938 67.3595 78.9833 67.602 78.8861 67.7475C78.7889 67.8931 78.7404 68.1679 78.6918 68.556V68.5398ZM78.7242 71.903C78.1412 71.9676 77.5907 71.9353 77.1049 71.7574C76.6191 71.5796 76.198 71.337 75.858 70.9975C75.5179 70.6579 75.2588 70.2214 75.0969 69.7202C74.935 69.2189 74.8702 68.6692 74.935 68.0548C74.9998 67.4403 75.1617 66.8744 75.4532 66.3085C75.7446 65.7426 76.0847 65.2575 76.5057 64.8048C76.9267 64.3521 77.4125 63.9964 77.9469 63.7053C78.4813 63.4143 79.048 63.2364 79.6472 63.1556C80.2463 63.0747 80.7807 63.1232 81.2665 63.3011C81.7523 63.479 82.1733 63.7215 82.5134 64.061C82.8534 64.4006 83.1125 64.8371 83.2744 65.3384C83.4364 65.8396 83.5011 66.3894 83.4364 67.0038C83.3716 67.6182 83.2097 68.1841 82.9182 68.75C82.6267 69.3159 82.2867 69.801 81.8656 70.2537C81.4446 70.7065 80.9588 71.0622 80.4244 71.3532C79.8901 71.6443 79.3233 71.8221 78.7242 71.903ZM78.8213 71.0298C79.7767 70.9167 80.6026 70.4801 81.3313 69.7202C82.06 68.9602 82.481 68.1033 82.5781 67.117C82.6753 66.1306 82.4324 65.3545 81.8494 64.7563C81.2665 64.158 80.4892 63.9155 79.55 64.0449C78.6108 64.1742 77.7688 64.5946 77.0401 65.3545C76.3114 66.1145 75.8904 66.9714 75.7932 67.9577C75.6961 68.944 75.939 69.7202 76.5219 70.3184C77.1049 70.9167 77.8821 71.1592 78.8213 71.0298Z" fill="#DFCCB3"/>
<path d="M18.2267 38.5142C17.077 39.8238 3.99291 55.249 8.72131 69.6232C13.7898 85.0322 38.29 96.027 64.5228 85.4525C65.9316 85.0645 66.7413 83.6093 66.2717 82.4775C65.9964 81.8145 65.3649 81.4912 65.203 81.4103C63.2274 80.3917 55.147 73.7462 39.2939 60.7303C37.7394 59.4529 35.3752 57.4803 33.092 54.2304C31.246 51.6272 30.1772 49.2342 29.5943 47.7143C25.8051 44.6422 22.0321 41.5863 18.2429 38.5142H18.2267Z" fill="#EF4136"/>
<path d="M64.5883 39.4521C63.9892 39.533 63.5358 39.5977 62.8395 39.6785L42.7438 42.1362C39.1651 42.5727 35.9912 39.5815 35.554 36.0082L34.6472 28.5866C34.291 25.6762 34.6472 22.022 36.4608 19.6937C37.9668 17.7696 41.6912 14.6328 44.4441 14.1316C50.5813 12.9998 54.6295 16.7995 62.7261 18.6104L64.6045 39.436L64.5883 39.4521Z" fill="#FBB040"/>
<path d="M39.3321 25.013L40.1255 31.4321C40.3198 33.0652 41.8096 34.2293 43.4451 34.0353L51.0559 33.0975C51.6226 33.0328 52.0275 32.5154 51.9465 31.9495L50.9425 23.8004C50.6025 21.0193 48.4164 18.691 45.615 18.4646C41.7934 18.1736 38.8625 21.3912 39.3159 24.9969L39.3321 25.013Z" fill="white"/>
<mask id="mask0_1302_5937" style="mask-type:luminance" maskUnits="userSpaceOnUse" x="39" y="18" width="13" height="17">
<path d="M39.3399 25.013L40.1333 31.4321C40.3277 33.0652 41.8174 34.2293 43.4529 34.0353L51.0637 33.0975C51.6305 33.0328 52.0353 32.5154 51.9543 31.9495L50.9503 23.8004C50.6103 21.0193 48.4242 18.691 45.6228 18.4646C41.8012 18.1736 38.8703 21.3912 39.3237 24.9969L39.3399 25.013Z" fill="white"/>
</mask>
<g mask="url(#mask0_1302_5937)">
<path d="M44.0006 34.3427C45.1827 35.8949 47.2554 36.6872 49.3281 36.0404C50.7207 35.6039 51.7409 34.569 52.2753 33.2755C51.1741 32.1437 49.571 31.5131 47.8869 31.7071C46.2028 31.9012 44.7616 32.936 43.9844 34.3427H44.0006Z" fill="white"/>
<path d="M47.8998 31.7073C46.1833 31.9175 44.7745 32.9361 43.9973 34.3428C43.4953 33.6799 43.139 32.8876 43.0419 31.9983L42.4265 26.9536C42.1351 24.5768 43.4629 22.1515 45.7785 21.4562C48.7581 20.5669 51.689 22.588 52.0453 25.5146L52.6606 30.5593C52.7739 31.5133 52.6606 32.4511 52.2882 33.2919C51.187 32.16 49.5839 31.5294 47.8998 31.7235V31.7073Z" fill="#3C2415"/>
<path d="M47.5271 30.4945C48.8149 30.4945 49.8589 29.4521 49.8589 28.1662C49.8589 26.8803 48.8149 25.8379 47.5271 25.8379C46.2393 25.8379 45.1953 26.8803 45.1953 28.1662C45.1953 29.4521 46.2393 30.4945 47.5271 30.4945Z" fill="white"/>
</g>
<path d="M69.883 42.0227C70.0126 42.0065 70.1259 41.9742 70.1259 41.9742C71.0975 41.8287 71.8424 41.0688 71.7291 40.0824L70.7575 32.2405L68.9762 31.4806C68.2799 31.5614 66.5311 31.8201 65.4299 31.9495L61.6084 32.5154C60.9444 32.7903 60.3615 32.8873 59.9567 32.9196C59.2604 32.9843 59.6166 31.5614 58.9365 30.8985C58.4021 30.3811 57.5601 30.3488 56.8638 30.4296C56.7666 31.5453 56.6209 34.7305 58.6774 37.6409C62.3694 42.8958 69.462 42.0874 69.8669 42.0227H69.883Z" fill="#F15A29"/>
<path d="M59.942 35.2642C61.2375 37.641 63.7798 38.5626 65.6906 38.8537C66.4679 38.0937 67.2775 36.9942 67.569 35.4744C67.9414 33.5664 67.3099 32.0465 67.0346 31.4806L68.3301 31.3189L67.1966 31.1573C66.6784 31.2219 65.3991 31.3998 64.5733 31.4968L61.7719 31.9172C61.2699 32.1274 60.8489 32.1921 60.5574 32.2082C60.0554 32.2567 60.2983 31.2058 59.7963 30.7207C59.4077 30.3326 59.4401 30.1224 58.9219 30.171C58.9866 31.416 59.2457 33.9545 59.9258 35.2318L59.942 35.2642Z" fill="#FBB040"/>
<path d="M63.6484 38.3204C65.624 39.242 67.7615 38.951 68.0368 38.9186C68.7655 38.8216 69.316 38.9671 69.1055 37.3341L68.4578 31.3516H68.3283L67.0328 31.4971C67.3081 32.063 67.6643 33.5667 67.2919 35.4746C66.9842 36.9945 65.7212 38.9186 63.6484 38.3365V38.3204Z" fill="#EF4136"/>
<path d="M56.6696 30.9956C56.6696 30.9956 56.7182 31.0926 56.7182 31.1249C57.3498 32.5963 58.9529 33.1622 59.2605 33.2754C59.8435 33.4856 60.1835 33.5018 60.3455 33.5179C60.7017 33.5341 61.1066 33.5179 61.3333 33.4694L67.5352 32.7095L69.4298 32.4831C69.6727 32.4831 70.0452 32.5155 70.45 32.6448C71.1139 32.8389 71.5349 33.1946 71.6807 33.3077C72.215 33.7605 72.4741 34.2941 72.6037 34.6013C72.5875 34.6983 72.5713 34.7791 72.6037 34.8761C72.6199 36.3637 73.7696 37.6895 75.2432 37.8836C75.4861 37.8997 75.7128 37.8997 75.9395 37.8836C76.3767 37.8512 76.7977 37.8027 77.2025 37.738C77.2025 37.738 77.2835 37.738 77.3159 37.738C78.3037 37.6249 78.9838 36.7194 78.8704 35.7331L78.5304 32.9359C78.3522 31.4322 78.3361 31.2543 78.2875 30.9956C77.9636 29.3302 77.413 27.972 76.8463 26.9534C74.1744 22.2805 69.5108 20.2433 66.1426 19.3216C66.0779 19.3055 66.0131 19.2893 65.9645 19.2731C64.1023 18.8204 62.3534 18.5779 62.1429 18.5132L60.6046 19.9037C60.6046 19.9037 60.5236 20.0007 60.475 20.0492C59.4872 21.1164 57.1554 23.9783 56.7344 28.2145C56.7182 28.3277 56.702 28.5056 56.6858 28.7481C56.6534 29.2494 56.6211 30.0416 56.6858 30.9956H56.6696Z" fill="#EF4136"/>
<path d="M36.6571 19.9198C36.4951 19.9198 36.3494 19.8713 36.2036 19.7742C35.8312 19.5155 35.734 19.0143 35.9931 18.6586C37.6124 16.2818 40.0252 14.4708 42.7781 13.5977C45.5309 12.7084 48.5266 12.7731 51.2471 13.7594C51.6681 13.9049 51.8786 14.3738 51.7329 14.7942C51.5871 15.2146 51.1175 15.4248 50.6965 15.2793C48.3161 14.4062 45.6928 14.3577 43.28 15.1338C40.8673 15.9099 38.7622 17.4783 37.3534 19.5641C37.1914 19.7904 36.9485 19.9198 36.6894 19.9198H36.6571Z" fill="#F15A29"/>
<path d="M87.45 68.9763L77.1836 81.1677C78.4143 81.5396 89.7495 82.2348 94.5588 79.5023C95.0932 79.1951 95.6761 78.8879 96.2591 78.5645C98.0727 77.5782 98.5099 75.169 97.1335 73.633C95.4494 71.725 93.5872 69.8171 92.2594 67.9415C91.0611 66.2761 89.3284 66.6965 87.45 68.9602V68.9763Z" fill="#EF4136"/>
<path d="M77.0859 81.8308L84.049 74.3931" stroke="#F15A29" stroke-width="0.497041" stroke-linecap="round" stroke-linejoin="round"/>
</g>
<defs>
<clipPath id="clip0_1302_5937">
<rect width="100.899" height="91.9527" fill="white"/>
</clipPath>
</defs>
</svg>
