<svg width="91" height="89" viewBox="0 0 91 89" fill="none" xmlns="http://www.w3.org/2000/svg">
<g clip-path="url(#clip0_1302_6228)">
<path d="M77.1132 5.18927C76.9379 9.26857 67.4408 14.6259 65.0227 17.3221C65.0227 17.4972 63.0077 17.6198 59.9062 17.7423C49.3227 18.11 25.9829 18.215 25.9829 18.8278C25.9829 23.9225 22.4609 28.1769 17.7299 29.3324C17.1691 29.49 16.5909 29.5775 15.9776 29.6301H15.9601C15.6797 29.6476 15.3994 29.6651 15.119 29.6651C13.8749 29.7001 12.7535 29.5425 11.7197 29.2099C11.6846 29.2099 11.6321 29.1924 11.597 29.1749C2.48541 26.2861 1.57425 11.1069 12.1052 8.46322L72.1718 0.987416C74.7126 0.549723 77.1482 2.59813 77.1132 5.18927Z" fill="#1C75BC"/>
<path d="M79.197 37.6136C79.197 40.1347 77.1469 42.1831 74.6237 42.1831C73.8001 42.1831 73.0116 41.9555 72.3457 41.5703L72.0479 41.3778C69.1216 39.5394 66.2129 37.7011 63.2867 35.8453C51.5818 28.4571 39.8768 21.0688 28.1719 13.6805L67.1241 12.0698L78.2683 34.8474C79.0042 36.3005 79.197 36.5806 79.197 37.6136Z" fill="#1C75BC"/>
<path d="M84.6823 23.8526C84.6998 26.3037 82.4394 28.247 80.0213 27.8443C69.9985 27.6167 39.2994 21.9442 29.0312 20.1059L50.3034 5.48698L58.2936 4.19141C63.2699 6.81757 77.9887 17.1121 82.8249 20.4736C83.9288 21.1914 84.6647 22.4345 84.6647 23.8526H84.6823Z" fill="#1C75BC"/>
<path d="M17.9552 68.042C17.4296 68.9699 16.9915 69.6352 16.7812 69.9153C17.1317 69.2675 17.5347 68.6548 17.9552 68.042Z" fill="#FBF7C3"/>
<path d="M81.4407 87.3528H45.1168C45.1168 87.3528 45.0642 87.2302 45.0467 87.1602H22.7057C18.0798 87.1602 14.3125 83.3961 14.3125 78.774V75.0974C14.5753 74.1345 14.9083 73.8543 15.2938 72.9439C15.4865 72.4537 15.7143 71.9635 15.9421 71.4733C16.1874 70.9831 16.4502 70.5104 16.7131 70.0377L20.4278 68.1993L20.568 68.1293L21.5317 67.6566C22.8634 68.8471 24.0725 69.9501 24.861 70.6854C25.0362 70.843 25.1939 70.9831 25.3165 71.0881C25.4918 71.2632 25.6319 71.3858 25.7196 71.4733C25.8072 71.5433 25.8597 71.5958 25.8597 71.5958L52.9844 53.4754L53.0019 53.4578L54.6315 52.3549H54.649L56.3662 51.1993L61.7631 47.5928C63.9709 47.3652 66.2137 47.2076 68.4566 47.1025C72.7496 60.3559 77.0426 73.6968 81.3355 87.0377L81.4407 87.3528Z" fill="#FBF7C3"/>
<path d="M61.7622 47.5928L25.8588 71.5959C25.8588 71.5959 22.7048 68.6721 19.5508 65.9059C24.0365 60.461 30.66 56.1716 38.51 53.0727C41.5413 51.8647 44.7479 50.8492 48.0947 50.0088C52.4578 48.9059 57.0486 48.1005 61.7622 47.5928Z" fill="#FFDF82"/>
<path d="M81.3722 87.1429L81.4423 87.353H45.1184C45.1184 87.353 45.0659 87.2304 45.0483 87.1604C42.9807 81.803 42.42 75.9554 43.9795 69.7227C45.0834 64.2778 47.554 59.8133 50.5153 56.2067L52.583 54.7711C52.583 54.7711 52.618 54.7361 52.618 54.7186L56.7883 51.8123L56.3678 51.1995L56.1225 50.8494L56.0699 50.7968L56.0173 50.7093C56.6657 50.1841 57.2965 49.6938 57.9273 49.2211C57.9623 49.2211 57.9798 49.1861 58.0149 49.1511C58.6632 48.6784 59.294 48.2407 59.9248 47.8205C60.2052 47.6454 60.4855 47.4529 60.7484 47.2778L60.836 47.2253C62.3429 46.2973 63.7096 45.562 64.8136 45.0018C65.7422 44.5466 66.4957 44.2139 66.9513 44.0213C67.0039 43.9863 67.0739 43.9688 67.1265 43.9513C67.144 43.9338 67.1616 43.9338 67.1791 43.9338C67.2316 43.8988 67.3017 43.8813 67.3543 43.8638C74.6962 52.4075 81.4248 65.9235 86.1908 80.0697C86.6289 81.3478 87.0494 82.6434 87.4349 83.939C85.9981 85.7598 83.8253 86.9853 81.3722 87.1429Z" fill="#FBF7C3"/>
<path d="M21.5296 67.6565L20.5659 68.1292L16.7109 70.0376C16.7109 70.0376 16.746 69.9676 16.7635 69.9325H16.781C16.9913 69.6349 17.4294 68.9696 17.955 68.0417C18.4457 67.3064 18.9713 66.6061 19.5496 65.9058C20.2154 66.501 20.8988 67.0963 21.5296 67.6565Z" fill="#FBF7C3"/>
<path d="M16.6758 70.0552C16.6758 70.0552 16.7281 70.0026 16.7629 69.9326C16.7455 69.9676 16.7281 70.0027 16.7106 70.0377H16.6758V70.0552Z" fill="#FFDF82"/>
<path d="M67.2816 43.6185L59.7119 47.8554L44.9055 56.119L22.2316 67.3065L21.5307 67.6566C20.8999 67.0964 20.2165 66.5011 19.5507 65.9058C18.9724 66.6062 18.4468 67.3065 17.9562 68.0418C18.2365 67.5691 18.5344 67.0088 18.8323 66.4136C19.0776 65.8883 19.3404 65.3281 19.5857 64.7153C21.3555 60.4084 22.4419 54.4733 17.5356 50.6916C17.4655 50.6391 17.3954 50.5691 17.3078 50.5166L15.9936 29.6473L15.8885 28.0892L15.9761 29.6473L17.1501 50.359L11.543 29.2972C11.543 29.2972 11.6831 29.2447 11.7357 29.2272C11.7007 29.2272 11.6481 29.2096 11.6131 29.1921L24.9301 9.33838L58.9585 14.3631L59.9222 17.7596L67.2816 43.6185Z" fill="#FFDF82"/>
<path d="M12.5945 29.5425L11.6133 29.1748L22.0917 8.58572C33.8316 11.6846 50.548 3.45596 62.288 6.55482C64.8637 16.0615 64.7411 34.3396 67.3519 43.8288C65.6522 44.7042 63.8825 45.6846 62.0777 46.7876C59.3792 48.4158 56.9612 50.079 54.8234 51.7072C57.4167 48.1007 57.7847 45.1243 57.7847 43.4086C57.7146 35.0224 48.3226 26.4261 34.0945 23.5198L12.6296 29.525L12.5945 29.5425Z" fill="#1C75BC"/>
<path d="M17.6074 50.7268C18.2557 50.7268 18.7463 50.7443 19.5173 50.7443H41.4378C45.3453 50.7443 48.3591 47.1027 48.3591 43.1985V35.1099C48.3591 31.9235 46.8171 28.9472 44.2063 27.1089C41.5429 25.2531 38.9496 24.4827 37.2675 24.045C30.7316 22.3293 24.1958 24.8854 15.75 27.8967L17.6249 50.7093L17.6074 50.7268Z" fill="#FBB040"/>
<path d="M41.0672 31.8883V38.8913C41.0672 40.6771 39.6129 42.1128 37.8431 42.1128H29.5375C28.9242 42.1128 28.4336 41.6225 28.4336 41.0098V32.1159C28.4336 29.087 30.4662 26.2858 33.445 25.6905C37.5102 24.8677 41.0847 27.949 41.0847 31.8883H41.0672Z" fill="white"/>
<mask id="mask0_1302_6228" style="mask-type:luminance" maskUnits="userSpaceOnUse" x="28" y="25" width="14" height="18">
<path d="M41.0672 31.8883V38.8913C41.0672 40.6771 39.6129 42.1128 37.8431 42.1128H29.5375C28.9242 42.1128 28.4336 41.6225 28.4336 41.0098V32.1159C28.4336 29.087 30.4662 26.2858 33.445 25.6905C37.5102 24.8677 41.0847 27.949 41.0847 31.8883H41.0672Z" fill="white"/>
</mask>
<g mask="url(#mask0_1302_6228)">
<path d="M40.6001 40.7821C39.5313 42.6029 37.4111 43.7234 35.0981 43.3033C33.5561 43.0231 32.3121 42.0427 31.5586 40.7121C32.5924 39.3465 34.222 38.4536 36.0618 38.4536C37.9017 38.4536 39.5838 39.364 40.6001 40.7646V40.7821Z" fill="white"/>
<path d="M36.0594 38.4534C37.9168 38.4534 39.5814 39.3638 40.5977 40.7645C41.0533 39.9941 41.3161 39.0837 41.3161 38.1208V32.6059C41.3161 30.0147 39.5639 27.5811 36.9881 27.1259C33.6588 26.5482 30.7852 29.1218 30.7852 32.3082V37.8057C30.7852 38.8386 31.048 39.8366 31.5386 40.6944C32.5724 39.3288 34.202 38.4359 36.0419 38.4359L36.0594 38.4534Z" fill="#3C2415"/>
<path d="M36.0076 37.1228C37.4011 37.1228 38.5308 35.994 38.5308 34.6017C38.5308 33.2093 37.4011 32.0806 36.0076 32.0806C34.6141 32.0806 33.4844 33.2093 33.4844 34.6017C33.4844 35.994 34.6141 37.1228 36.0076 37.1228Z" fill="white"/>
</g>
<path d="M25.4556 30.0852L23.7734 29.5775C23.9662 28.9472 24.8773 27.1964 25.8761 26.8287C26.5945 26.5661 27.348 26.5311 27.9613 26.4961H41.5762V28.2469H28.0138C27.5057 28.2644 26.9625 28.2994 26.4894 28.4745C26.2441 28.6145 25.6133 29.595 25.4556 30.0852Z" fill="#F15A29"/>
<path d="M21.5494 47.7506C21.3917 48.0132 20.4279 49.2913 19.9548 49.5714C19.5518 49.9215 18.1325 50.902 17.6068 50.7094C17.5718 50.7094 17.5543 50.7094 17.5192 50.6744C16.6256 50.3592 15.4516 50.3067 14.9434 50.3242C11.474 50.3242 7.25113 50.4818 3.58896 50.5168H3.48382C1.67902 50.4643 0.242188 48.9936 0.242188 47.1903C0.242188 45.387 1.73159 43.8639 3.57144 43.8639H9.70426C10.2416 43.8522 10.9308 43.8464 11.7719 43.8464H18.5355C18.7808 43.8639 19.2189 43.8464 19.6044 43.7763C19.7796 43.7413 20.1476 43.6713 20.7434 43.3736C21.0588 43.2161 22.7059 42.3932 23.1965 40.73C23.1965 40.695 23.214 40.6424 23.2315 40.6074C23.3016 42.6033 23.0388 45.282 21.5494 47.7506Z" fill="#F15A29"/>
<path d="M23.2328 40.5901C23.2328 40.5901 23.1977 40.6951 23.1977 40.7301C22.7071 42.3934 21.06 43.2162 20.7446 43.3738C20.1488 43.6714 19.7808 43.7415 19.6056 43.7765C19.2201 43.8465 18.7821 43.864 18.5368 43.8465H9.70549C9.44266 43.8815 9.05716 43.9691 8.63663 44.1617C7.95326 44.4593 7.55024 44.897 7.41006 45.037C6.90191 45.5973 6.69165 46.1925 6.58651 46.5427H6.56899C6.60403 46.6477 6.62156 46.7353 6.62156 46.8403C6.79678 48.4335 5.74544 50.0092 4.18595 50.4119C3.92311 50.4644 3.6778 50.4995 3.43249 50.517C2.95938 50.5345 2.5038 50.5345 2.06574 50.5345H1.94308C0.874221 50.5345 0.015625 49.6591 0.015625 48.5911V45.5448C0.015625 43.899 0.015625 43.7065 0.015625 43.4263C0.138282 41.588 0.558818 40.0648 1.03192 38.8918C3.29231 33.517 8.02334 30.7157 11.5278 29.2801C11.5979 29.2451 11.668 29.2276 11.7206 29.2101C13.6655 28.4747 15.5054 27.9845 15.7332 27.897L17.573 29.1925C17.573 29.1925 17.6782 29.2801 17.7307 29.3326C18.9398 30.3481 21.8134 33.1143 22.8297 37.6138C22.8648 37.7363 22.8998 37.9289 22.9524 38.174C23.0575 38.7168 23.1977 39.5571 23.2328 40.5901Z" fill="#EF4136"/>
<path d="M42.7487 46.0874C43.3196 46.0874 43.7825 45.6249 43.7825 45.0544C43.7825 44.484 43.3196 44.0215 42.7487 44.0215C42.1777 44.0215 41.7148 44.484 41.7148 45.0544C41.7148 45.6249 42.1777 46.0874 42.7487 46.0874Z" fill="#3C2415"/>
<path d="M56.0106 50.7091C54.1357 52.2498 52.2257 54.0706 50.5086 56.2065L27.8171 72.086C27.344 72.4362 26.7833 72.5938 26.2401 72.5938C25.5392 72.5938 24.8208 72.3312 24.2951 71.8059L20.5628 68.1293L18.8281 66.4135C19.0734 65.8883 19.3363 65.3281 19.5816 64.7153L20.1073 65.2405L22.2275 67.3064L25.5217 70.5454C25.8721 70.8955 26.4153 70.9305 26.8183 70.6679L55.7653 50.3765L56.0106 50.7091Z" fill="#FBB040"/>
<path d="M46.478 76.936C47.2841 80.8752 48.9312 84.3593 50.9462 87.3531H48.8611C47.0212 84.4118 45.5143 81.0503 44.7609 77.2861C42.7808 67.4293 50.6484 48.7485 67.0668 43.041L67.6275 44.6867C52.0852 50.0966 44.6032 67.6744 46.478 76.936Z" fill="#FBB040"/>
<path d="M38.6119 24.5H30.1836V26.4959H38.6119V24.5Z" fill="#FBB040"/>
<path d="M35.984 69.4253L26.6445 74.9577H41.4509L35.984 69.4253Z" fill="#FBB040"/>
<path d="M18.0234 70.0552L25.8559 74.9748C25.2251 75.6752 24.6119 76.3755 23.981 77.0933C21.3877 75.7102 18.7769 74.3271 16.1836 72.944C16.7093 72.0336 17.4978 70.9831 18.0234 70.0727V70.0552Z" fill="#FBB040"/>
<path d="M12.346 76.6209L11.207 74.7126L17.9531 70.0205L18.9519 71.4737L12.346 76.6209Z" fill="#FBB040"/>
<path d="M23.9966 74.5567L21.4258 83.3638L23.1079 83.854L25.6788 75.0469L23.9966 74.5567Z" fill="#FBB040"/>
<path d="M25.2419 76.7782L24.5234 75.185C27.4497 73.8544 30.3934 72.4713 33.2846 71.0356L34.0556 72.6113C31.1294 74.047 28.1681 75.4476 25.2419 76.7782Z" fill="#FBB040"/>
<path d="M11.189 74.6773C10.7334 74.012 10.2778 73.3642 9.80469 72.7164L18.5483 66.4312C19.2142 67.0614 19.88 67.6917 20.5634 68.322C17.4444 70.4404 14.3255 72.5589 11.189 74.6773Z" fill="#FBF7C3"/>
<path d="M25.8932 82.3809C26.4642 82.3809 26.927 81.9184 26.927 81.3479C26.927 80.7774 26.4642 80.3149 25.8932 80.3149C25.3222 80.3149 24.8594 80.7774 24.8594 81.3479C24.8594 81.9184 25.3222 82.3809 25.8932 82.3809Z" fill="#FBB040"/>
</g>
<defs>
<clipPath id="clip0_1302_6228">
<rect width="90.9586" height="87.9763" fill="white" transform="translate(0 0.935059)"/>
</clipPath>
</defs>
</svg>
