<svg width="98" height="93" viewBox="0 0 98 93" fill="none" xmlns="http://www.w3.org/2000/svg">
<g clip-path="url(#clip0_702_1841)">
<path d="M29.0535 64.6618V65.2339C29.0535 66.0039 28.4377 66.62 27.668 66.62H22.6096C21.8619 66.62 21.2461 66.0039 21.2461 65.2339V64.6618C21.2461 63.8918 21.8619 63.2757 22.6096 63.2757H24.1711C22.9615 62.8797 22.1258 61.7356 22.1258 60.4156C22.1258 58.7655 23.4894 57.4014 25.1608 57.4014C26.8323 57.4014 28.1738 58.7655 28.1738 60.4156C28.1738 61.7356 27.3381 62.8577 26.1505 63.2757H27.69C28.4597 63.2757 29.0755 63.8918 29.0755 64.6618H29.0535Z" fill="white"/>
<path d="M63.9344 64.6618V65.2339C63.9344 66.0039 63.3186 66.62 62.5489 66.62H57.4905C56.7427 66.62 56.127 66.0039 56.127 65.2339V64.6618C56.127 63.8918 56.7427 63.2757 57.4905 63.2757H59.052C57.8424 62.8797 57.0067 61.7356 57.0067 60.4156C57.0067 58.7655 58.3702 57.4014 60.0417 57.4014C61.7131 57.4014 63.0547 58.7655 63.0547 60.4156C63.0547 61.7356 62.219 62.8577 61.0314 63.2757H62.5708C63.3406 63.2757 63.9564 63.8918 63.9564 64.6618H63.9344Z" fill="white"/>
<path d="M97.3634 26.3576C101.498 13.7068 83.7938 14.7188 83.7938 14.7188C83.8378 14.5648 84.7615 13.1787 84.8055 13.0027C84.9814 12.0567 85.9051 6.88633 82.2763 3.08008C80.9567 1.71599 79.5932 1.05595 79.2633 0.923941C76.5582 -0.33014 71.9177 -0.902177 64.5501 3.16809C51.1125 10.6486 42.7552 12.2987 36.5532 12.0347C30.967 11.7926 28.8997 9.68051 19.4208 9.28448C13.9886 9.06447 11.5034 9.5925 9.34811 10.6486C3.58599 13.5088 2.0025 19.3171 1.87055 19.8232C0.946849 23.3874 1.7166 27.2156 3.78392 30.5599C3.8499 30.6699 3.91588 30.7799 4.00385 30.8899C4.13581 31.0659 4.26776 31.2419 4.39972 31.4399C5.93922 33.244 8.49039 34.0801 10.6457 34.0801C13.2628 34.0801 16.0559 33.156 19.4428 31.1759C20.2346 30.7139 21.2462 30.9999 21.6861 31.7699C22.1259 32.54 21.884 33.574 21.0923 34.0361C17.1775 36.3022 13.8566 37.3803 10.6457 37.3803H10.6017C10.3598 37.3803 10.1398 37.3583 9.91992 37.3363C9.59003 37.5783 9.28213 37.8203 8.99622 38.0623C2.15645 44.0687 -0.438698 51.8792 0.0671365 59.6237C0.924856 57.4676 2.13446 55.0474 3.73994 52.3633C5.05951 50.1631 10.1179 42.7706 20.2346 39.7344C26.1066 37.9743 31.2969 39.2944 33.8481 40.2405C36.9491 41.3625 39.0604 43.4967 40.5999 45.0588C41.3477 45.8068 42.3593 46.8409 42.7332 46.8409C43.1071 46.8409 44.1187 45.8068 44.8445 45.0588C46.406 43.4967 48.5173 41.3625 51.5963 40.2405C54.1695 39.2944 59.3598 37.9743 65.2318 39.7344C75.3485 42.7706 80.4069 50.1631 81.7045 52.3633C83.288 55.0474 84.5196 57.4456 85.3773 59.6017C85.6412 55.5755 85.0694 51.5272 83.4639 47.721C83.4859 47.721 83.5299 47.721 83.5519 47.721C81.9904 44.3107 79.3293 41.3845 76.0523 39.6024C75.2606 39.1624 74.9527 38.1723 75.3925 37.3583C75.8324 36.5662 76.8221 36.2582 77.6358 36.6982C81.9904 39.0524 85.4213 43.0787 87.1587 47.721C89.0501 47.5229 90.9635 46.9949 92.7009 45.8948C93.6466 45.2788 94.7462 44.3767 95.7579 43.0347C95.9778 42.5066 97.2534 39.0964 95.2301 35.6862C93.5806 32.936 90.3476 31.2199 86.8288 31.1759C95.34 31.7039 97.3634 26.3356 97.3634 26.3356V26.3576Z" fill="white"/>
<path d="M33.0788 42.3082C30.7696 41.4501 26.0851 40.2841 20.8508 41.8462C11.4819 44.6404 6.81943 51.4608 5.60982 53.4849C2.28891 59.0733 1.14528 62.6375 0.859375 64.9037C2.24492 70.558 5.19196 75.9484 9.26063 80.3266C20.1911 92.1194 37.5434 93.0215 42.7117 92.9995C47.902 93.0215 65.2104 92.1194 76.1628 80.3266C80.2315 75.9484 83.2005 70.536 84.586 64.8597C84.3001 62.5935 83.1345 59.0293 79.8136 53.4849C78.626 51.4608 73.9635 44.6404 64.5946 41.8462C59.3383 40.2841 54.6758 41.4501 52.3666 42.3082C49.7274 43.2543 47.902 45.1244 46.4285 46.6205C45.0649 47.9626 44.0313 48.9746 42.7117 49.0406C41.4361 48.9526 40.3585 47.9626 39.0169 46.6205C37.5434 45.1244 35.696 43.2543 33.0788 42.3082ZM31.3414 66.9938C31.3414 67.6098 31.2534 68.2039 31.0775 68.7759H18.9815C18.8715 68.4239 18.8055 68.0719 18.7615 67.6978C18.7395 67.4778 18.7175 67.2358 18.7175 66.9938V57.1372C18.7175 53.6389 21.5986 51.5488 25.0955 51.5488C25.5133 51.5488 25.9092 51.5488 26.3051 51.5488C25.2714 49.9647 23.8639 49.3267 21.7965 49.3927C16.4743 49.5907 15.5506 55.091 15.5066 55.333C15.3746 56.2351 14.5169 56.8511 13.6372 56.7191C12.7355 56.5871 12.1197 55.7511 12.2517 54.849C12.6915 51.9228 15.2207 46.3565 21.6866 46.1144C29.2301 45.7624 30.6816 52.9129 31.2095 55.5751C31.2095 55.6631 31.2095 55.7511 31.2095 55.8391C31.2974 56.2571 31.3414 56.6971 31.3414 57.1372V66.9938ZM53.8621 57.2032C53.8621 56.7631 53.906 56.3231 53.994 55.9051C53.994 55.8171 53.994 55.7291 53.994 55.6411C54.5438 52.9789 55.9734 45.8504 63.5169 46.1804C69.9828 46.4225 72.512 52.0108 72.9298 54.915C73.0618 55.8171 72.446 56.6531 71.5443 56.7851C70.6426 56.8951 69.8069 56.3011 69.6749 55.399C69.6309 55.135 68.6852 49.6787 63.385 49.4807C61.3176 49.3927 59.9101 50.0527 58.8764 51.6368C59.2723 51.6368 59.6682 51.6368 60.086 51.6368C63.5829 51.6368 66.464 53.7269 66.464 57.2252V67.0818C66.464 67.3238 66.442 67.5658 66.42 67.7858C66.376 68.1599 66.31 68.5119 66.2 68.8639H54.104C53.928 68.2919 53.8401 67.6978 53.8401 67.0818V57.2252L53.8621 57.2032ZM43.4155 66.6638C46.6044 67.6538 49.0676 68.4239 52.1246 74.3203C52.4105 74.8483 52.3006 75.4643 51.8607 75.9264C50.7831 77.0484 48.4078 79.3146 43.6574 81.4047C43.0856 81.6467 42.3598 81.6467 41.788 81.4047C37.0156 79.3146 34.6623 77.0484 33.5847 75.9264C33.1448 75.4863 33.0349 74.8703 33.3208 74.3203C36.3778 68.4019 38.841 67.6538 42.0299 66.6638C42.4698 66.5318 42.9756 66.5318 43.4155 66.6638Z" fill="white"/>
</g>
<defs>
<clipPath id="clip0_702_1841">
<rect width="98" height="93" fill="white"/>
</clipPath>
</defs>
</svg>
