<svg width="328" height="311" viewBox="0 0 328 311" fill="none" xmlns="http://www.w3.org/2000/svg">
<g clip-path="url(#clip0_940_2239)">
<path d="M97.357 216.134V218.046C97.357 220.62 95.2988 222.679 92.726 222.679H75.8192C73.3199 222.679 71.2617 220.62 71.2617 218.046V216.134C71.2617 213.56 73.3199 211.501 75.8192 211.501H81.0383C76.9953 210.178 74.202 206.354 74.202 201.942C74.202 196.426 78.7595 191.867 84.3461 191.867C89.9327 191.867 94.4167 196.426 94.4167 201.942C94.4167 206.354 91.6234 210.104 87.654 211.501H92.7995C95.3723 211.501 97.4305 213.56 97.4305 216.134H97.357Z" fill="white"/>
<path d="M213.959 216.134V218.046C213.959 220.62 211.9 222.679 209.328 222.679H192.421C189.921 222.679 187.863 220.62 187.863 218.046V216.134C187.863 213.56 189.921 211.501 192.421 211.501H197.64C193.597 210.178 190.804 206.354 190.804 201.942C190.804 196.426 195.361 191.867 200.948 191.867C206.534 191.867 211.018 196.426 211.018 201.942C211.018 206.354 208.225 210.104 204.256 211.501H209.401C211.974 211.501 214.032 213.56 214.032 216.134H213.959Z" fill="white"/>
<path d="M325.693 88.1069C339.512 45.8233 280.338 49.206 280.338 49.206C280.485 48.6913 283.573 44.0585 283.72 43.4702C284.308 40.3081 287.395 23.027 275.266 10.3052C270.856 5.74589 266.298 3.5398 265.196 3.09858C256.154 -1.09301 240.644 -3.00496 216.019 10.5993C171.106 35.6018 143.173 41.117 122.443 40.2346C103.772 39.4257 96.8627 32.3661 65.1808 31.0425C47.0243 30.3071 38.718 32.072 31.5142 35.6018C12.2551 45.1615 6.96256 64.5752 6.52152 66.2665C3.43419 78.1795 6.00696 90.9748 12.9167 102.152C13.1372 102.52 13.3577 102.888 13.6518 103.255C14.0928 103.844 14.5339 104.432 14.9749 105.094C20.1205 111.124 28.6474 113.918 35.8512 113.918C44.5986 113.918 53.9341 110.83 65.2543 104.211C67.9006 102.667 71.2819 103.623 72.7521 106.197C74.2223 108.771 73.4137 112.227 70.7674 113.771C57.683 121.345 46.5833 124.949 35.8512 124.949H35.7041C34.8955 124.949 34.1605 124.875 33.4254 124.802C32.3228 125.611 31.2937 126.419 30.3381 127.228C7.47712 147.304 -1.19681 173.409 0.493873 199.294C3.36068 192.088 7.40361 183.999 12.7697 175.027C17.1802 167.674 34.087 142.965 67.9006 132.817C87.5272 126.934 104.875 131.346 113.402 134.509C123.767 138.259 130.823 145.392 135.969 150.613C138.468 153.113 141.849 156.57 143.099 156.57C144.349 156.57 147.73 153.113 150.156 150.613C155.375 145.392 162.432 138.259 172.723 134.509C181.323 131.346 198.671 126.934 218.298 132.817C252.111 142.965 269.018 167.674 273.355 175.027C278.648 183.999 282.764 192.014 285.631 199.221C286.513 185.764 284.602 172.233 279.236 159.511C279.309 159.511 279.456 159.511 279.53 159.511C274.311 148.113 265.416 138.332 254.464 132.376C251.817 130.905 250.788 127.596 252.258 124.875C253.728 122.228 257.036 121.198 259.756 122.669C274.311 130.538 285.778 143.995 291.585 159.511C297.907 158.849 304.302 157.084 310.109 153.407C313.27 151.348 316.945 148.333 320.327 143.848C321.062 142.083 325.325 130.685 318.562 119.286C313.049 110.094 302.244 104.358 290.482 104.211C318.93 105.976 325.693 88.0334 325.693 88.0334V88.1069Z" fill="white"/>
<path d="M110.818 141.421C103.1 138.553 87.4424 134.656 69.9475 139.877C38.6332 149.216 23.0495 172.012 19.0066 178.778C7.90692 197.456 4.08451 209.369 3.12891 216.943C7.7599 235.842 17.61 253.858 31.2089 268.492C67.7423 307.908 125.74 310.923 143.014 310.849C160.362 310.923 218.213 307.908 254.82 268.492C268.419 253.858 278.342 235.768 282.973 216.796C282.018 209.222 278.122 197.309 267.022 178.778C263.053 172.012 247.469 149.216 216.155 139.877C198.586 134.656 183.003 138.553 175.284 141.421C166.463 144.583 160.362 150.834 155.437 155.834C150.88 160.32 147.425 163.703 143.014 163.923C138.751 163.629 135.149 160.32 130.665 155.834C125.74 150.834 119.565 144.583 110.818 141.421ZM105.011 223.929C105.011 225.988 104.717 227.974 104.129 229.885H63.6994C63.3318 228.709 63.1113 227.532 62.9643 226.282C62.8908 225.547 62.8173 224.738 62.8173 223.929V190.985C62.8173 179.292 72.4468 172.306 84.1346 172.306C85.5312 172.306 86.8543 172.306 88.1775 172.306C84.7226 167.012 80.0181 164.879 73.1084 165.1C55.3195 165.762 52.2322 184.146 52.0851 184.955C51.6441 187.97 48.7773 190.029 45.837 189.587C42.8231 189.146 40.7649 186.352 41.206 183.337C42.6761 173.556 51.1295 154.952 72.7408 154.143C97.954 152.966 102.806 176.866 104.57 185.763C104.57 186.058 104.57 186.352 104.57 186.646C104.864 188.043 105.011 189.514 105.011 190.985V223.929ZM180.283 191.205C180.283 189.734 180.43 188.264 180.724 186.867C180.724 186.572 180.724 186.278 180.724 185.984C182.562 177.086 187.34 153.26 212.553 154.363C234.164 155.172 242.617 173.851 244.014 183.557C244.455 186.572 242.397 189.367 239.383 189.808C236.369 190.176 233.576 188.19 233.135 185.175C232.988 184.293 229.827 166.056 212.112 165.394C205.202 165.1 200.497 167.306 197.043 172.6C198.366 172.6 199.689 172.6 201.086 172.6C212.773 172.6 222.403 179.586 222.403 191.279V224.223C222.403 225.032 222.329 225.841 222.256 226.576C222.109 227.826 221.888 229.003 221.521 230.18H181.091C180.503 228.268 180.209 226.282 180.209 224.223V191.279L180.283 191.205ZM145.367 222.826C156.025 226.135 164.258 228.709 174.476 248.417C175.431 250.182 175.064 252.241 173.594 253.785C169.992 257.535 162.053 265.109 146.175 272.095C144.264 272.904 141.838 272.904 139.927 272.095C123.976 265.109 116.11 257.535 112.509 253.785C111.038 252.314 110.671 250.255 111.626 248.417C121.844 228.635 130.077 226.135 140.736 222.826C142.206 222.385 143.896 222.385 145.367 222.826Z" fill="white"/>
</g>
<defs>
<clipPath id="clip0_940_2239">
<rect width="327.551" height="310.825" fill="white" transform="translate(0.273438 0.00390625)"/>
</clipPath>
</defs>
</svg>
