<svg width="50" height="14" viewBox="0 0 50 14" fill="none" xmlns="http://www.w3.org/2000/svg">
<path d="M6.01394 13H3.71168V3.7668H0.242188V1.45649H9.47538V3.7668H6.01394V13Z" fill="url(#paint0_linear_643_2389)"/>
<path d="M17.4609 13H16.9296L16.0763 11.8167C15.867 12.0045 15.6443 12.1816 15.4081 12.348C15.1774 12.509 14.9332 12.6512 14.6756 12.7746C14.418 12.8927 14.1524 12.9866 13.8787 13.0563C13.6103 13.1261 13.3366 13.161 13.0576 13.161C12.4512 13.161 11.8796 13.059 11.343 12.8551C10.8117 12.6512 10.3448 12.356 9.94228 11.9696C9.54515 11.5779 9.2312 11.1002 9.00044 10.5367C8.76968 9.97325 8.6543 9.33194 8.6543 8.61282C8.6543 7.942 8.76968 7.32753 9.00044 6.7694C9.2312 6.20591 9.54515 5.72292 9.94228 5.32043C10.3448 4.91793 10.8117 4.60667 11.343 4.38664C11.8796 4.16125 12.4512 4.04855 13.0576 4.04855C13.3366 4.04855 13.613 4.08343 13.8867 4.1532C14.1604 4.22296 14.4261 4.31956 14.6836 4.44299C14.9412 4.56642 15.1854 4.71132 15.4162 4.87768C15.6523 5.04405 15.8723 5.22383 16.0763 5.41703L16.9296 4.39469H17.4609V13ZM15.2471 8.61282C15.2471 8.31229 15.1881 8.0225 15.07 7.74344C14.9573 7.45901 14.8017 7.20946 14.6031 6.9948C14.4046 6.77477 14.1711 6.60036 13.9028 6.47156C13.6398 6.33739 13.3581 6.27031 13.0576 6.27031C12.757 6.27031 12.4726 6.32129 12.2043 6.42326C11.9413 6.52522 11.7106 6.67549 11.512 6.87405C11.3188 7.07262 11.1659 7.31948 11.0532 7.61464C10.9405 7.90443 10.8841 8.23716 10.8841 8.61282C10.8841 8.98848 10.9405 9.32389 11.0532 9.61906C11.1659 9.90885 11.3188 10.153 11.512 10.3516C11.7106 10.5502 11.9413 10.7004 12.2043 10.8024C12.4726 10.9044 12.757 10.9553 13.0576 10.9553C13.3581 10.9553 13.6398 10.8909 13.9028 10.7621C14.1711 10.628 14.4046 10.4536 14.6031 10.2389C14.8017 10.0189 14.9573 9.76932 15.07 9.49026C15.1881 9.20583 15.2471 8.91335 15.2471 8.61282Z" fill="url(#paint1_linear_643_2389)"/>
<path d="M30.0267 9.8847C30.0267 10.3355 29.9408 10.7621 29.7691 11.1646C29.5974 11.5618 29.3612 11.9079 29.0607 12.2031C28.7655 12.4982 28.4167 12.7317 28.0142 12.9034C27.6171 13.0751 27.1905 13.161 26.7343 13.161C26.3264 13.161 25.9347 13.0912 25.559 12.9517C25.1834 12.8068 24.8426 12.5975 24.5367 12.3238C24.2362 12.5975 23.8981 12.8068 23.5224 12.9517C23.1521 13.0912 22.7603 13.161 22.3471 13.161C21.891 13.161 21.4643 13.0751 21.0672 12.9034C20.6701 12.7317 20.3212 12.4982 20.0207 12.2031C19.7255 11.9079 19.4921 11.5618 19.3204 11.1646C19.1486 10.7621 19.0628 10.3355 19.0628 9.8847V4.39469H21.2604V9.8847C21.2604 10.035 21.2872 10.1772 21.3409 10.3113C21.3999 10.4401 21.4777 10.5555 21.5743 10.6575C21.6763 10.7541 21.7917 10.8319 21.9205 10.8909C22.0546 10.9446 22.1969 10.9714 22.3471 10.9714C22.4974 10.9714 22.6396 10.9446 22.7738 10.8909C22.9079 10.8319 23.026 10.7541 23.128 10.6575C23.2299 10.5555 23.3077 10.4401 23.3614 10.3113C23.4204 10.1772 23.45 10.035 23.45 9.8847V4.39469H25.6395V9.8847C25.6395 10.035 25.669 10.1772 25.7281 10.3113C25.7871 10.4401 25.8649 10.5555 25.9615 10.6575C26.0635 10.7541 26.1789 10.8319 26.3077 10.8909C26.4418 10.9446 26.584 10.9714 26.7343 10.9714C26.8846 10.9714 27.0268 10.9446 27.1609 10.8909C27.2951 10.8319 27.4105 10.7541 27.5071 10.6575C27.609 10.5555 27.6895 10.4401 27.7486 10.3113C27.8076 10.1772 27.8371 10.035 27.8371 9.8847V4.39469H30.0267V9.8847Z" fill="url(#paint2_linear_643_2389)"/>
<path d="M34.2126 2.03608C34.2126 2.24001 34.1724 2.43053 34.0919 2.60762C34.0167 2.78472 33.9121 2.94035 33.7779 3.07451C33.6438 3.20331 33.4855 3.30796 33.303 3.38846C33.1259 3.46359 32.9354 3.50116 32.7314 3.50116C32.5275 3.50116 32.3343 3.46359 32.1519 3.38846C31.9748 3.30796 31.8191 3.20331 31.685 3.07451C31.5562 2.94035 31.4515 2.78472 31.371 2.60762C31.2959 2.43053 31.2583 2.24001 31.2583 2.03608C31.2583 1.83752 31.2959 1.64969 31.371 1.47259C31.4515 1.29013 31.5562 1.1345 31.685 1.0057C31.8191 0.871535 31.9748 0.766887 32.1519 0.691755C32.3343 0.611256 32.5275 0.571007 32.7314 0.571007C32.9354 0.571007 33.1259 0.611256 33.303 0.691755C33.4855 0.766887 33.6438 0.871535 33.7779 1.0057C33.9121 1.1345 34.0167 1.29013 34.0919 1.47259C34.1724 1.64969 34.2126 1.83752 34.2126 2.03608ZM33.8343 13H31.6206V4.37859H33.8343V13Z" fill="url(#paint3_linear_643_2389)"/>
<path d="M42.0568 2.47012C42.4174 1.41494 43.8754 1.38298 44.3029 2.37425L44.339 2.47072L44.8256 3.89371C44.9371 4.22005 45.1173 4.51868 45.3541 4.76946C45.5908 5.02024 45.8786 5.21733 46.198 5.34744L46.3288 5.39628L47.7518 5.88227C48.807 6.24284 48.8389 7.7008 47.8483 8.12829L47.7518 8.16447L46.3288 8.65106C46.0023 8.7625 45.7036 8.94267 45.4527 9.17941C45.2018 9.41615 45.0046 9.70395 44.8745 10.0234L44.8256 10.1536L44.3396 11.5772C43.9791 12.6324 42.5211 12.6644 42.0942 11.6737L42.0568 11.5772L41.5708 10.1542C41.4594 9.82779 41.2792 9.52904 41.0425 9.27815C40.8058 9.02726 40.5179 8.83008 40.1985 8.6999L40.0683 8.65106L38.6453 8.16507C37.5895 7.8045 37.5575 6.34655 38.5488 5.91965L38.6453 5.88227L40.0683 5.39628C40.3946 5.28477 40.6932 5.10457 40.944 4.86783C41.1948 4.63109 41.3919 4.34333 41.522 4.02395L41.5708 3.89371L42.0568 2.47012ZM48.0219 0.391113C48.1347 0.391113 48.2453 0.422756 48.341 0.482445C48.4367 0.542134 48.5137 0.627475 48.5634 0.728771L48.5923 0.799317L48.8033 1.41795L49.4226 1.62899C49.5356 1.6674 49.6347 1.7385 49.7073 1.83328C49.7799 1.92807 49.8227 2.04227 49.8304 2.16142C49.838 2.28056 49.81 2.39929 49.7501 2.50255C49.6902 2.60581 49.601 2.68896 49.4937 2.74145L49.4226 2.77039L48.8039 2.98143L48.5929 3.60067C48.5544 3.71368 48.4833 3.81273 48.3885 3.88526C48.2936 3.95779 48.1794 4.00055 48.0603 4.0081C47.9411 4.01566 47.8224 3.98768 47.7192 3.9277C47.616 3.86773 47.5329 3.77846 47.4804 3.67122L47.4515 3.60067L47.2405 2.98203L46.6212 2.771C46.5082 2.73259 46.4091 2.66149 46.3365 2.5667C46.2639 2.47192 46.2211 2.35772 46.2135 2.23857C46.2058 2.11942 46.2338 2.0007 46.2937 1.89744C46.3536 1.79417 46.4429 1.71103 46.5501 1.65854L46.6212 1.62959L47.2399 1.41856L47.4509 0.799317C47.4916 0.680188 47.5685 0.57677 47.6709 0.503565C47.7733 0.430359 47.896 0.391038 48.0219 0.391113Z" fill="url(#paint4_linear_643_2389)"/>
<defs>
<linearGradient id="paint0_linear_643_2389" x1="49.8316" y1="6.77606" x2="0.242188" y2="6.77606" gradientUnits="userSpaceOnUse">
<stop stop-color="#FFC757"/>
<stop offset="1" stop-color="#EB5E55"/>
</linearGradient>
<linearGradient id="paint1_linear_643_2389" x1="49.8316" y1="6.77606" x2="0.242188" y2="6.77606" gradientUnits="userSpaceOnUse">
<stop stop-color="#FFC757"/>
<stop offset="1" stop-color="#EB5E55"/>
</linearGradient>
<linearGradient id="paint2_linear_643_2389" x1="49.8316" y1="6.77606" x2="0.242188" y2="6.77606" gradientUnits="userSpaceOnUse">
<stop stop-color="#FFC757"/>
<stop offset="1" stop-color="#EB5E55"/>
</linearGradient>
<linearGradient id="paint3_linear_643_2389" x1="49.8316" y1="6.77606" x2="0.242188" y2="6.77606" gradientUnits="userSpaceOnUse">
<stop stop-color="#FFC757"/>
<stop offset="1" stop-color="#EB5E55"/>
</linearGradient>
<linearGradient id="paint4_linear_643_2389" x1="49.8316" y1="6.77606" x2="0.242188" y2="6.77606" gradientUnits="userSpaceOnUse">
<stop stop-color="#FFC757"/>
<stop offset="1" stop-color="#EB5E55"/>
</linearGradient>
</defs>
</svg>
