<svg width="34" height="33" viewBox="0 0 34 33" fill="none" xmlns="http://www.w3.org/2000/svg">
<path d="M17.7236 5.0565C18.4796 4.37829 19.6818 4.91429 19.6818 5.92926V27.7716C19.6818 28.7872 18.4796 29.3232 17.7236 28.645L12.2187 23.7037C11.6341 23.1786 10.876 22.8881 10.0902 22.8879H6.93594C6.00188 22.8879 5.10608 22.5169 4.4456 21.8564C3.78512 21.1959 3.41406 20.3001 3.41406 19.366V14.3348C3.41406 12.3894 4.99052 10.8129 6.93594 10.8129H10.0902C10.876 10.8128 11.6341 10.5223 12.2187 9.99719L17.7236 5.0565ZM25.2752 6.38274C25.4272 6.22057 25.6373 6.12538 25.8595 6.11809C26.0816 6.11079 26.2976 6.19199 26.4599 6.34383L26.4612 6.34517L26.4632 6.34652L26.4672 6.35054L26.48 6.36262L26.5202 6.40152C26.5533 6.43507 26.5985 6.48202 26.6558 6.5424C26.7698 6.66248 26.9268 6.83757 27.1133 7.06699C27.6229 7.69755 28.0755 8.37216 28.4657 9.08284C29.4437 10.8525 30.4151 13.4647 30.4151 16.8504C30.4151 20.2361 29.4437 22.8477 28.4657 24.6187C28.0754 25.3291 27.6228 26.0035 27.1133 26.6339C26.9253 26.8643 26.7272 27.0864 26.5196 27.2993L26.4793 27.3382L26.4672 27.3503L26.4632 27.3543L26.4612 27.3557C26.4612 27.3557 26.904 26.9129 26.4599 27.3563C26.2968 27.5031 26.0828 27.5801 25.8637 27.5709C25.6446 27.5617 25.4378 27.467 25.2876 27.3071C25.1375 27.1472 25.056 26.9349 25.0605 26.7156C25.0651 26.4963 25.1554 26.2876 25.3121 26.1341L25.3134 26.1334L25.3154 26.1314L25.3369 26.1099C25.3579 26.0894 25.3908 26.0558 25.4355 26.0093C25.5234 25.9154 25.6542 25.7705 25.8132 25.5746C26.2593 25.0214 26.6558 24.4299 26.9979 23.807C27.8646 22.2399 28.738 19.9047 28.738 16.8504C28.738 13.7961 27.8646 11.4609 26.9979 9.89388C26.6558 9.27072 26.2594 8.67898 25.8132 8.12557C25.6624 7.94014 25.5035 7.76152 25.3369 7.59024L25.3154 7.56877L25.3134 7.56676L25.3121 7.56542C25.1506 7.4132 25.056 7.20318 25.0491 6.98137C25.0422 6.75956 25.1235 6.54472 25.2752 6.38274ZM22.5892 10.4104C22.6641 10.3297 22.7542 10.2644 22.8543 10.2185C22.9544 10.1726 23.0626 10.1468 23.1727 10.1427C23.2827 10.1386 23.3926 10.1562 23.4958 10.1945C23.5991 10.2329 23.6938 10.2912 23.7745 10.3661L23.8175 10.4077L23.7745 10.3675L23.7765 10.3688L23.7799 10.3722L23.7893 10.3802L23.8175 10.4077C23.8403 10.4301 23.8709 10.4612 23.9094 10.501C23.9852 10.5801 24.0898 10.6935 24.2126 10.8398C24.4581 11.1322 24.7808 11.5589 25.1021 12.1096C25.9445 13.5476 26.389 15.1839 26.3901 16.8504C26.3901 18.8784 25.7441 20.4904 25.1021 21.5919C24.7801 22.142 24.4581 22.5693 24.2126 22.8618C24.087 23.0115 23.9549 23.1556 23.8168 23.2938L23.804 23.3065L23.7893 23.3206L23.7799 23.3293L23.7765 23.3327L23.7745 23.3347C23.6113 23.4825 23.3964 23.5601 23.1764 23.5508C22.9563 23.5415 22.7488 23.446 22.5986 23.285C22.4484 23.1239 22.3675 22.9102 22.3736 22.6901C22.3796 22.47 22.472 22.261 22.6308 22.1084L22.6321 22.1071L22.6428 22.0963L22.6998 22.0386C22.7786 21.9559 22.8546 21.8707 22.9279 21.7831C23.1225 21.551 23.3874 21.2021 23.6531 20.7466C24.346 19.565 24.7119 18.2202 24.713 16.8504C24.713 15.1888 24.1851 13.8659 23.6531 12.9549C23.3874 12.4987 23.1231 12.1499 22.9286 11.9185C22.8375 11.8103 22.7422 11.7058 22.6428 11.6052L22.6314 11.5938L22.6321 11.5944C22.4696 11.443 22.3738 11.2333 22.3657 11.0113C22.3577 10.7893 22.438 10.5732 22.5892 10.4104Z" fill="#212429"/>
</svg>
