<svg width="22" height="19" viewBox="0 0 22 19" fill="none" xmlns="http://www.w3.org/2000/svg">
<path d="M17.2857 5.17578C18.1436 5.17578 18.9663 5.51656 19.5729 6.12315C20.1795 6.72974 20.5202 7.55246 20.5202 8.41031C20.5202 9.26816 20.1795 10.0909 19.5729 10.6975C18.9663 11.3041 18.1436 11.6448 17.2857 11.6448M8.66031 5.17578V17.0357C8.66031 17.3217 8.54671 17.5959 8.34452 17.7981C8.14232 18.0003 7.86808 18.1139 7.58213 18.1139H6.50396C6.21801 18.1139 5.94377 18.0003 5.74157 17.7981C5.53937 17.5959 5.42578 17.3217 5.42578 17.0357V11.6448" stroke="#212429" stroke-width="1.52213" stroke-linecap="round" stroke-linejoin="round"/>
<path d="M10.8169 5.17522L15.6945 1.1105C15.8363 0.992451 16.0087 0.917241 16.1916 0.893687C16.3746 0.870133 16.5605 0.899209 16.7275 0.97751C16.8945 1.05581 17.0357 1.18009 17.1346 1.33579C17.2335 1.49148 17.286 1.67214 17.2859 1.8566V14.9629C17.286 15.1474 17.2335 15.328 17.1346 15.4837C17.0357 15.6394 16.8945 15.7637 16.7275 15.842C16.5605 15.9203 16.3746 15.9494 16.1916 15.9258C16.0087 15.9023 15.8363 15.8271 15.6945 15.709L10.8169 11.6443H2.19146C1.90551 11.6443 1.63127 11.5307 1.42907 11.3285C1.22687 11.1263 1.11328 10.8521 1.11328 10.5661V6.2534C1.11328 5.96745 1.22687 5.69321 1.42907 5.49101C1.63127 5.28882 1.90551 5.17522 2.19146 5.17522H10.8169Z" stroke="#212429" stroke-width="1.52213" stroke-linecap="round" stroke-linejoin="round"/>
</svg>
