<svg width="142" height="30" viewBox="0 0 142 30" fill="none" xmlns="http://www.w3.org/2000/svg">
<path d="M42.7205 5.82785V24H38.6643V5.82785H42.7205ZM48.2496 5.82785V8.98551H33.2476V5.82785H48.2496ZM55.2139 20.7799V14.9888C55.2139 14.5811 55.1515 14.2316 55.0267 13.9404C54.9019 13.6492 54.7063 13.4204 54.4401 13.254C54.1738 13.0876 53.8285 13.0044 53.4042 13.0044C53.0464 13.0044 52.7344 13.0668 52.4681 13.1916C52.2102 13.3164 52.0105 13.4953 51.869 13.7282C51.7359 13.9612 51.6693 14.2483 51.6693 14.5894H47.7753C47.7753 13.982 47.9126 13.4162 48.1872 12.892C48.4617 12.3678 48.8528 11.906 49.3604 11.5066C49.8762 11.1073 50.492 10.7994 51.2075 10.5831C51.9231 10.3584 52.726 10.2461 53.6163 10.2461C54.673 10.2461 55.6133 10.425 56.437 10.7828C57.2691 11.1322 57.9264 11.6606 58.409 12.3678C58.8916 13.0668 59.1329 13.9487 59.1329 15.0138V20.6676C59.1329 21.483 59.1786 22.1237 59.2702 22.5897C59.37 23.0473 59.5115 23.4467 59.6945 23.7878V24H55.763C55.58 23.6089 55.4427 23.1263 55.3512 22.5522C55.2597 21.9698 55.2139 21.379 55.2139 20.7799ZM55.7006 15.7626L55.7256 17.9093H53.7911C53.3584 17.9093 52.984 17.9634 52.6678 18.0716C52.3599 18.1798 52.1103 18.3295 51.9189 18.5209C51.7276 18.704 51.5861 18.9203 51.4946 19.1699C51.4114 19.4112 51.3698 19.6775 51.3698 19.9687C51.3698 20.2433 51.4363 20.4929 51.5695 20.7175C51.7026 20.9339 51.8857 21.1044 52.1186 21.2292C52.3516 21.3541 52.622 21.4165 52.9299 21.4165C53.4374 21.4165 53.8701 21.3166 54.2279 21.1169C54.594 20.9172 54.8769 20.6759 55.0766 20.393C55.2763 20.1018 55.3761 19.8314 55.3761 19.5818L56.3122 21.2043C56.1624 21.5371 55.9794 21.8824 55.763 22.2402C55.5467 22.5897 55.2721 22.9183 54.9393 23.2262C54.6065 23.5257 54.2029 23.7712 53.7287 23.9626C53.2627 24.1539 52.7011 24.2496 52.0437 24.2496C51.195 24.2496 50.4254 24.079 49.7348 23.7379C49.0442 23.3884 48.4909 22.91 48.0748 22.3026C47.6671 21.6952 47.4633 20.9963 47.4633 20.2058C47.4633 19.4986 47.5922 18.8704 47.8502 18.3212C48.1081 17.772 48.495 17.3061 49.0109 16.9233C49.5351 16.5406 50.1924 16.2535 50.9829 16.0622C51.7733 15.8625 52.6969 15.7626 53.7536 15.7626H55.7006ZM65.5106 13.3788V24H61.6041V10.4957H65.2735L65.5106 13.3788ZM64.9989 16.7736L64.0254 16.7985C64.0254 15.7834 64.1502 14.8723 64.3998 14.0652C64.6494 13.2581 65.0031 12.5717 65.4607 12.0059C65.9266 11.4318 66.48 10.9949 67.1206 10.6954C67.7696 10.3958 68.4852 10.2461 69.2673 10.2461C69.8997 10.2461 70.478 10.3376 71.0022 10.5207C71.5264 10.7037 71.9757 10.9991 72.3501 11.4068C72.7329 11.8062 73.0241 12.3387 73.2238 13.0044C73.4235 13.6617 73.5233 14.4729 73.5233 15.4381V24H69.6043V15.4256C69.6043 14.8598 69.5253 14.423 69.3672 14.1151C69.2091 13.8073 68.9761 13.591 68.6683 13.4661C68.3687 13.3413 68.0026 13.2789 67.57 13.2789C67.1123 13.2789 66.7213 13.3705 66.3967 13.5535C66.0722 13.7282 65.806 13.9737 65.598 14.2899C65.39 14.6061 65.236 14.9763 65.1362 15.4007C65.0447 15.825 64.9989 16.2827 64.9989 16.7736ZM83.221 20.7799V14.9888C83.221 14.5811 83.1586 14.2316 83.0337 13.9404C82.9089 13.6492 82.7134 13.4204 82.4471 13.254C82.1809 13.0876 81.8356 13.0044 81.4112 13.0044C81.0535 13.0044 80.7414 13.0668 80.4752 13.1916C80.2172 13.3164 80.0175 13.4953 79.8761 13.7282C79.743 13.9612 79.6764 14.2483 79.6764 14.5894H75.7824C75.7824 13.982 75.9197 13.4162 76.1942 12.892C76.4688 12.3678 76.8599 11.906 77.3674 11.5066C77.8833 11.1073 78.499 10.7994 79.2146 10.5831C79.9302 10.3584 80.7331 10.2461 81.6234 10.2461C82.6801 10.2461 83.6203 10.425 84.4441 10.7828C85.2761 11.1322 85.9335 11.6606 86.4161 12.3678C86.8987 13.0668 87.14 13.9487 87.14 15.0138V20.6676C87.14 21.483 87.1857 22.1237 87.2772 22.5897C87.3771 23.0473 87.5185 23.4467 87.7016 23.7878V24H83.7701C83.5871 23.6089 83.4498 23.1263 83.3583 22.5522C83.2667 21.9698 83.221 21.379 83.221 20.7799ZM83.7077 15.7626L83.7327 17.9093H81.7981C81.3655 17.9093 80.991 17.9634 80.6749 18.0716C80.367 18.1798 80.1174 18.3295 79.926 18.5209C79.7346 18.704 79.5932 18.9203 79.5017 19.1699C79.4185 19.4112 79.3769 19.6775 79.3769 19.9687C79.3769 20.2433 79.4434 20.4929 79.5765 20.7175C79.7097 20.9339 79.8927 21.1044 80.1257 21.2292C80.3587 21.3541 80.6291 21.4165 80.937 21.4165C81.4445 21.4165 81.8772 21.3166 82.235 21.1169C82.6011 20.9172 82.884 20.6759 83.0837 20.393C83.2834 20.1018 83.3832 19.8314 83.3832 19.5818L84.3193 21.2043C84.1695 21.5371 83.9865 21.8824 83.7701 22.2402C83.5538 22.5897 83.2792 22.9183 82.9464 23.2262C82.6136 23.5257 82.21 23.7712 81.7357 23.9626C81.2698 24.1539 80.7081 24.2496 80.0508 24.2496C79.2021 24.2496 78.4325 24.079 77.7419 23.7379C77.0513 23.3884 76.4979 22.91 76.0819 22.3026C75.6742 21.6952 75.4703 20.9963 75.4703 20.2058C75.4703 19.4986 75.5993 18.8704 75.8572 18.3212C76.1152 17.772 76.5021 17.3061 77.018 16.9233C77.5422 16.5406 78.1995 16.2535 78.9899 16.0622C79.7804 15.8625 80.704 15.7626 81.7607 15.7626H83.7077ZM93.6799 20.2433L96.3259 10.4957H98.7846L97.9484 14.839L95.3024 24H93.293L93.6799 20.2433ZM92.4693 10.4957L94.2416 20.2058L94.4288 24H92.0325L88.7125 10.4957H92.4693ZM101.181 20.0186L102.941 10.4957H106.697L103.403 24H101.006L101.181 20.0186ZM99.0842 10.4957L101.755 20.1933L102.142 24H100.108L97.4866 14.8515L96.6878 10.4957H99.0842ZM115.734 17.6847H111.166V14.527H115.734C116.408 14.527 116.948 14.4147 117.356 14.19C117.772 13.9654 118.076 13.6575 118.267 13.2665C118.467 12.8671 118.567 12.4178 118.567 11.9185C118.567 11.4026 118.467 10.9242 118.267 10.4832C118.076 10.0339 117.772 9.67196 117.356 9.39738C116.948 9.1228 116.408 8.98551 115.734 8.98551H112.638V24H108.57V5.82785H115.734C117.181 5.82785 118.421 6.08995 119.453 6.61415C120.493 7.13834 121.288 7.85807 121.837 8.77334C122.394 9.68028 122.673 10.7204 122.673 11.8936C122.673 13.0668 122.394 14.086 121.837 14.9514C121.288 15.8167 120.493 16.4907 119.453 16.9733C118.421 17.4475 117.181 17.6847 115.734 17.6847ZM137.338 13.1416V16.2868H127.927V13.1416H137.338ZM129.213 5.82785V24H125.144V5.82785H129.213ZM140.146 5.82785V24H136.09V5.82785H140.146Z" fill="url(#paint0_linear_643_2166)"/>
<path d="M27.493 16.5946C26.955 16.5946 26.4446 16.2766 26.2246 15.7494C24.0309 10.5024 19.182 6.83826 14.4347 6.83826C9.68745 6.83826 4.83737 10.5036 2.64366 15.7506C2.35076 16.4512 1.54501 16.7811 0.844452 16.4882C0.143898 16.1953 -0.186056 15.3896 0.106838 14.689C2.71658 8.44858 8.60793 4.08984 14.4335 4.08984C20.2591 4.08984 26.1505 8.44858 28.7602 14.689C29.0531 15.3896 28.7231 16.1953 28.0226 16.4882C27.8492 16.5611 27.6699 16.5946 27.493 16.5946Z" fill="url(#paint1_linear_643_2166)"/>
<path d="M14.4342 8.69434C9.81728 8.69434 6.07422 12.4374 6.07422 17.0544C6.07422 19.4525 7.08321 21.6139 8.6995 23.1382C10.1962 24.55 12.2142 25.4156 14.4342 25.4156C16.6543 25.4156 18.4798 24.6301 19.9526 23.3342C21.6944 21.8028 22.7943 19.5577 22.7943 17.0544C22.7943 12.4374 19.0512 8.69434 14.4342 8.69434ZM19.3668 20.4137C18.5921 18.4471 16.6758 17.0544 14.4342 17.0544C12.1927 17.0544 10.274 18.4483 9.50048 20.4185C8.82622 19.437 8.46519 18.2785 8.46519 17.0544C8.46519 13.7632 11.1431 11.0853 14.4342 11.0853C17.7254 11.0853 20.4033 13.7632 20.4033 17.0544C20.4033 18.263 20.0363 19.4322 19.3668 20.4137Z" fill="url(#paint2_linear_643_2166)"/>
<path d="M16.689 14.215C16.689 15.5085 15.6394 16.557 14.3459 16.557C13.0523 16.557 12.0039 15.5085 12.0039 14.215C12.0039 12.9215 13.0523 11.873 14.3459 11.873C15.6394 11.873 16.689 12.9215 16.689 14.215Z" fill="url(#paint3_linear_643_2166)"/>
<defs>
<linearGradient id="paint0_linear_643_2166" x1="32.7148" y1="15" x2="141.715" y2="15" gradientUnits="userSpaceOnUse">
<stop stop-color="#EB5E55"/>
<stop offset="1" stop-color="#FFC758"/>
</linearGradient>
<linearGradient id="paint1_linear_643_2166" x1="14.4335" y1="4.08984" x2="14.4335" y2="16.595" gradientUnits="userSpaceOnUse">
<stop stop-color="#EB5E55"/>
<stop offset="1" stop-color="#FFC758"/>
</linearGradient>
<linearGradient id="paint2_linear_643_2166" x1="14.4342" y1="8.69434" x2="14.4342" y2="25.4156" gradientUnits="userSpaceOnUse">
<stop stop-color="#EB5E55"/>
<stop offset="1" stop-color="#FFC758"/>
</linearGradient>
<linearGradient id="paint3_linear_643_2166" x1="14.3465" y1="11.873" x2="14.3465" y2="16.557" gradientUnits="userSpaceOnUse">
<stop stop-color="#EB5E55"/>
<stop offset="1" stop-color="#FFC758"/>
</linearGradient>
</defs>
</svg>
